<?xml version="1.0" encoding="utf-8"?>
<!-- Generator: Adobe Illustrator 23.0.3, SVG Export Plug-In . SVG Version: 6.00 Build 0)  -->
<svg version="1.1" id="Layer_1" xmlns="http://www.w3.org/2000/svg" xmlns:xlink="http://www.w3.org/1999/xlink" x="0px" y="0px"
	 viewBox="0 0 1202 749" style="enable-background:new 0 0 1202 749;" xml:space="preserve">
<g>
	<path style="fill:#E7F3FE;" d="M451.4,699.32C157.15,682.19-78.82,370.89,77.75,190.22C199.19,50.11,361.1,254.06,512.12,151.3
		c232.33-158.08,608.73-186.82,658.55,12.45c49.82,199.28-115.21,510.65-238.2,529.33C809.48,711.77,451.4,699.32,451.4,699.32z"/>
	<path style="fill:#303C60;" d="M489.54,277.41c3.11,74.73,2.34,115.21-24.91,146.34c-27.24,31.14-103.53,23.35-103.53,23.35
		s-7.52,110.02-114.17,114.69c-106.64,4.67-121.95-137-38.4-173.33c79.53-34.58,104.83-44.63,132.33-130.26
		c25.13-78.22,103.53-63.31,122.21-30.62C481.76,260.28,489.54,277.41,489.54,277.41z"/>
	<path style="fill:#E38540;" d="M454.51,658.84c0,0,50.34,9.86,52.93,9.34c2.59-0.52,57.6-24.91,63.31-21.28
		c5.71,3.63,38.92,17.64,46.19,20.76c7.27,3.11-4.15,4.15-9.86,4.15c-5.71,0-38.4-13.49-42.04-10.9c-3.63,2.6,28.54,7.78,28.54,9.86
		c0,2.08-86.15,21.8-91.34,21.8c-5.19,0-45.15-3.63-45.15-3.63L454.51,658.84z"/>
	<path style="fill:#6791C9;" d="M412.74,383.92c27.12,5.32,43.07,34.02,48.26,59.15C466.19,468.21,412.74,383.92,412.74,383.92z"/>
	<g>
		<defs>
			<path id="SVGID_1_" d="M451.4,699.32C157.15,682.19-78.82,370.89,77.75,190.22C199.19,50.11,361.1,254.06,512.12,151.3
				c232.33-158.08,608.73-186.82,658.55,12.45c49.82,199.28-115.21,510.65-238.2,529.33C809.48,711.77,451.4,699.32,451.4,699.32z"
				/>
		</defs>
		<clipPath id="SVGID_2_">
			<use xlink:href="#SVGID_1_"  style="overflow:visible;"/>
		</clipPath>
		<path style="clip-path:url(#SVGID_2_);fill:#75A1DE;" d="M367.33,364.59c0,0-52.15,35.03-80.18,52.15
			c-28.02,17.12,10.12,201.61,19.46,270.11c9.34,68.5,171.25,6.23,171.25,6.23s-10.9-57.6,3.11-150.24
			c10.04-66.35-26.73-107.94-47.74-136.74C380.19,333.42,367.33,364.59,367.33,364.59z"/>
		<path style="clip-path:url(#SVGID_2_);fill:#6791C9;" d="M315.95,417.53c59.94,73.17,80.2,86.85,65.39,136.22
			c-11.68,38.92-15.57,52.93-17.9,66.17c-2.34,13.23,111.32-8.56,111.32-8.56l-0.78,42.81c0,0-89.52,42.81-133.11,51.38
			c-43.59,8.56-70.84-1.56-70.84-1.56L315.95,417.53z"/>
	</g>
	<path style="fill:#2E5B9A;" d="M1066.52,710.6H357.34c-5.12,0-9.27-4.15-9.27-9.27c0-5.12,4.15-9.27,9.27-9.27h709.18
		c5.12,0,9.27,4.15,9.27,9.27C1075.79,706.45,1071.64,710.6,1066.52,710.6z"/>
	<path style="fill:#F09959;" d="M386.53,290.9l-26.99,79.92c0,0,29.58,80.18,54.49,62.27c8.5-6.11-3.11-54.49-3.11-54.49
		l18.16-64.87L386.53,290.9z"/>
	<path style="fill:#F09959;" d="M300.38,414.41c-37.26,4.14-40.48,54.49-57.6,138.56s-11.98,139.56-3.89,150.24
		c19.46,25.69,238.2-63.83,265.44-63.05c18.8,0.54,3.11-31.14,3.11-31.14l-208.62,31.92c0,0,29.58-97.3,29.58-147.12
		C328.41,443.99,314.4,412.85,300.38,414.41z"/>
	<path style="fill:#F09959;" d="M494.21,610.58c21.8-5.45,53.71-17.9,59.94-12.46c6.23,5.45,31.92,44.37,40.48,55.27
		c8.56,10.9-3.89,2.34-13.23-6.23c-9.34-8.56-17.13-13.23-17.13-13.23s-11.68,10.9-22.57,17.13c-10.9,6.23-14.79-6.23-33.47-9.34
		c-18.68-3.11-65.39,13.23-65.39,13.23L494.21,610.58z"/>
	<path style="fill:#75A1DE;" d="M304.54,408.18c-22.83,1.04-40.48,20.24-46.71,49.82c-6.23,29.58-24.39,123.51-24.39,123.51
		s-3.63,2.59,34.25,9.34c37.88,6.75,69.02-1.04,69.02-1.04s7.78-53.45,5.71-90.3c-2.08-36.85-10.38-71.62-23.87-83.55
		C305.05,404.03,304.54,408.18,304.54,408.18z"/>
	<path style="fill:#E38540;" d="M410.92,378.6l18.16-64.87l-42.55-22.83l-6.5,19.25c-1.41,64.45,15.09,86,26.22,93.88
		c3.47,2.46,6.46,0.56,8.97-3.46C413.39,388.89,410.92,378.6,410.92,378.6z"/>
	<path style="fill:#F09959;" d="M497.33,298.43c0,34.72-4.14,77.29-34.25,76.29c-46.71-1.56-76.14-37.86-76.14-72.58
		c0-34.72,24.42-62.86,54.54-62.86C471.61,239.27,497.33,263.71,497.33,298.43z"/>
	<path style="fill:#9BD6E8;" d="M845.88,692.04H670.79l72.02-158.44c2.1-4.62,6.71-7.59,11.79-7.59h158.9c3.68,0,6.12,3.8,4.6,7.15
		L845.88,692.04z"/>
	<path style="fill:#9BD6E8;" d="M845.5,692.04H522.5c0-11.25,9.12-20.38,20.38-20.38H845.5V692.04z"/>
	<path style="fill:#7BCEE8;" d="M913.5,526H773.47c-5.08,0-9.69,2.97-11.79,7.59l-72.02,158.44h156.22l72.22-158.88
		C919.62,529.8,917.18,526,913.5,526z"/>
	<path style="fill:#303C60;" d="M445.95,227.2c33.08-2.34,52.67,27.89,58.38,54.36c4.12,19.1,2.08,22.83,2.08,22.83
		s-3.63,5.19-29.58,6.75c-25.95,1.56-29.06,1.04-29.06,1.04l-1.56-30.1l-7.78,29.06c0,0-4.15,5.71-20.24-2.08
		c-16.09-7.78-23.35-33.73-23.35-33.73s-3.63-17.13,8.82-28.54C416.11,235.37,445.95,227.2,445.95,227.2z"/>
	<path style="fill:#D54A41;" d="M421.34,305.29c-3.17,21-19.94,35.88-37.44,33.24c-17.5-2.65-29.12-21.81-25.95-42.81
		c3.17-21,19.94-35.88,37.44-33.23C412.89,265.12,424.51,284.29,421.34,305.29z"/>
	<path style="fill:#F39892;" d="M408.69,304.73c-2.94,19.44-16.7,33.49-30.74,31.37c-14.04-2.12-23.04-19.6-20.1-39.05
		c2.94-19.45,16.7-33.49,30.74-31.37S411.63,285.28,408.69,304.73z"/>
	<path style="fill:#F2E5DE;" d="M387.24,300.39c-1.61,10.68-7.43,18.66-13,17.82c-5.57-0.84-8.77-10.18-7.15-20.87
		c1.61-10.68,7.43-18.66,13-17.82C385.65,280.36,388.85,289.7,387.24,300.39z"/>
	<path style="fill:#D54A41;" d="M386.4,263.01c15.18-56.44,67.58-48.21,80.83-40.35c11.16,6.62,12.71,15.96,12.71,15.96
		s-14.4-11.68-38.92-7.4c-23.27,4.06-37.11,17.77-39.05,32.95C400.98,271.91,386.4,263.01,386.4,263.01z"/>
	<g>
		<path style="fill:#303C60;" d="M153.52,445.19c-0.04,0-0.08,0-0.12-0.01c-0.66-0.06-1.14-0.65-1.08-1.31
			c1.36-14.27,8.5-28.94,20.08-41.31c13.1-13.98,31.75-25,53.93-31.86c49.41-15.28,92.52-34.71,119.61-118.06
			c0.21-0.63,0.88-0.97,1.51-0.77c0.63,0.21,0.98,0.88,0.77,1.51c-12.45,38.31-29.39,66.2-51.8,85.26
			c-19.77,16.82-42.03,25.9-69.38,34.35c-21.78,6.74-40.07,17.53-52.88,31.21c-11.23,11.98-18.13,26.15-19.45,39.9
			C154.66,444.73,154.13,445.19,153.52,445.19z"/>
	</g>
	<g>
		<path style="fill:#303C60;" d="M175.84,387.59c-0.36,0-0.71-0.16-0.95-0.47c-0.41-0.52-0.31-1.28,0.21-1.68
			c0.21-0.16,21.32-16.33,51.85-23.06c58.61-12.91,97.96-48.16,113.79-101.92c0.19-0.64,0.85-1,1.49-0.81
			c0.64,0.19,1,0.85,0.81,1.49c-9.78,33.21-28.18,59.42-54.7,77.9c-17.07,11.9-37.56,20.54-60.89,25.68
			c-29.98,6.61-50.69,22.45-50.9,22.61C176.35,387.51,176.09,387.59,175.84,387.59z"/>
	</g>
	<g>
		<path style="fill:#9EC8FF;" d="M927.3,370.36H769.21c-1.48,0-2.25-1.2-1.71-2.68l32.07-88.1c0.54-1.48,2.18-2.68,3.66-2.68h158.09
			c1.48,0,2.25,1.2,1.71,2.68l-32.07,88.1C930.42,369.16,928.78,370.36,927.3,370.36z"/>
		<path style="fill:#FFFFFF;" d="M925.39,366.24H774.11c-1.38,0-2.1-1.12-1.59-2.5l29.2-80.22c0.5-1.38,2.03-2.51,3.42-2.51h151.27
			c1.38,0,2.1,1.12,1.59,2.51l-29.2,80.22C928.3,365.12,926.77,366.24,925.39,366.24z"/>
		<path style="fill:#9EC8FF;" d="M922.66,361.02H780.65c-1.56,0-2.36-1.26-1.79-2.82l25.17-69.15c0.57-1.56,2.29-2.82,3.84-2.82
			h142.01c1.56,0,2.36,1.26,1.79,2.82L926.5,358.2C925.94,359.75,924.21,361.02,922.66,361.02z"/>
		
			<ellipse transform="matrix(0.7678 -0.6407 0.6407 0.7678 -6.4262 629.5151)" style="fill:#FFFFFF;" cx="865.26" cy="323.62" rx="31.1" ry="21.65"/>
		<path style="fill:#9EC8FF;" d="M887.61,323.62c-4.49,12.34-18.14,22.34-30.48,22.34c-12.34,0-18.7-10-14.21-22.34
			c4.49-12.34,18.14-22.34,30.48-22.34C885.73,301.28,892.1,311.28,887.61,323.62z"/>
		<polygon style="fill:#FFFFFF;" points="876.71,322.43 866.83,327.14 856.94,331.86 860.38,322.43 863.81,313 870.26,317.71 		"/>
		<g>
			<path style="fill:#9CD499;" d="M687.99,271.25h-12.46c-2.56,0-4.77-1.06-6.07-2.92c-1.38-1.97-1.61-4.63-0.64-7.3l4.53-12.46
				c1.75-4.81,6.94-8.58,11.81-8.58h12.45c2.56,0,4.77,1.07,6.07,2.92c1.38,1.97,1.61,4.63,0.64,7.3l-4.53,12.45
				C698.05,267.47,692.86,271.25,687.99,271.25z M685.17,244.78c-2.84,0-6.25,2.54-7.3,5.43l-4.53,12.46
				c-0.43,1.18-0.41,2.24,0.06,2.91c0.51,0.72,1.44,0.88,2.14,0.88h12.46c2.89,0,6.23-2.49,7.3-5.43l4.53-12.46
				c0.43-1.18,0.41-2.24-0.06-2.91c-0.51-0.72-1.44-0.88-2.14-0.88H685.17z"/>
		</g>
		<g>
			<path style="fill:#9CD499;" d="M668.72,324.18h-12.45c-2.56,0-4.77-1.07-6.07-2.92c-1.38-1.97-1.61-4.63-0.64-7.3l4.53-12.45
				c1.75-4.81,6.94-8.58,11.81-8.58h12.45c2.56,0,4.77,1.07,6.07,2.92c1.38,1.97,1.61,4.63,0.64,7.3l-4.53,12.45
				C678.78,320.41,673.59,324.18,668.72,324.18z M665.9,297.71c-2.84,0-6.25,2.54-7.3,5.43l-4.53,12.46
				c-0.43,1.18-0.41,2.24,0.06,2.91c0.51,0.72,1.44,0.88,2.14,0.88h12.45c2.89,0,6.23-2.48,7.3-5.43l4.53-12.45
				c0.43-1.18,0.41-2.24-0.06-2.91c-0.51-0.72-1.44-0.88-2.14-0.88H665.9z"/>
		</g>
		<g>
			<path style="fill:#9EC8FF;" d="M649.46,377.11H637c-2.56,0-4.77-1.07-6.07-2.92c-1.38-1.97-1.61-4.63-0.64-7.3l4.53-12.45
				c1.75-4.81,6.94-8.59,11.81-8.59h12.46c2.56,0,4.77,1.07,6.07,2.92c1.38,1.97,1.61,4.63,0.64,7.3l-4.53,12.45
				C659.52,373.34,654.33,377.11,649.46,377.11z M646.64,350.65c-2.89,0-6.23,2.48-7.3,5.43l-4.53,12.45
				c-0.43,1.18-0.41,2.24,0.06,2.91c0.51,0.72,1.44,0.88,2.14,0.88h12.45c2.89,0,6.23-2.48,7.3-5.43l4.53-12.45
				c0.43-1.18,0.41-2.24-0.06-2.91c-0.51-0.72-1.44-0.88-2.14-0.88H646.64z"/>
		</g>
		<path style="fill:#9EC8FF;" d="M790.46,261.06h-68.5c-1.28,0-1.95-1.05-1.49-2.34c0.47-1.28,1.9-2.34,3.19-2.34h68.5
			c1.28,0,1.95,1.05,1.49,2.34C793.18,260.01,791.75,261.06,790.46,261.06z"/>
		<path style="fill:#9EC8FF;" d="M787.06,270.4h-68.5c-1.28,0-1.95-1.05-1.48-2.33c0.47-1.28,1.9-2.34,3.19-2.34h68.5
			c1.28,0,1.95,1.05,1.49,2.34C789.78,269.35,788.35,270.4,787.06,270.4z"/>
		<path style="fill:#9EC8FF;" d="M772.61,310.1h-68.5c-1.28,0-1.95-1.05-1.48-2.34c0.47-1.28,1.9-2.34,3.18-2.34h68.5
			c1.28,0,1.95,1.05,1.49,2.34C775.33,309.05,773.9,310.1,772.61,310.1z"/>
		<path style="fill:#9EC8FF;" d="M769.21,319.44h-68.5c-1.28,0-1.95-1.05-1.48-2.33c0.47-1.28,1.9-2.34,3.18-2.34h68.5
			c1.28,0,1.95,1.05,1.48,2.34C771.93,318.39,770.5,319.44,769.21,319.44z"/>
		<path style="fill:#9EC8FF;" d="M752.78,364.59h-68.5c-1.28,0-1.95-1.05-1.49-2.34c0.47-1.28,1.9-2.33,3.18-2.33h68.5
			c1.28,0,1.95,1.05,1.49,2.33C755.5,363.54,754.06,364.59,752.78,364.59z"/>
		<path style="fill:#9EC8FF;" d="M749.38,373.93h-68.5c-1.28,0-1.95-1.05-1.49-2.33c0.47-1.28,1.9-2.34,3.19-2.34h68.5
			c1.28,0,1.95,1.05,1.49,2.34C752.1,372.88,750.66,373.93,749.38,373.93z"/>
		<g>
			<path style="fill:#F37168;" d="M685.09,264.24c-0.21,0-0.42-0.03-0.63-0.08c-0.72-0.2-1.32-0.72-1.6-1.42l-4.7-11.68
				c-0.5-1.23,0.1-2.63,1.33-3.12c1.23-0.49,2.63,0.1,3.12,1.33l3.52,8.74l27.79-21.42c1.05-0.81,2.56-0.61,3.37,0.44
				c0.81,1.05,0.61,2.56-0.44,3.37l-30.3,23.35C686.13,264.07,685.61,264.24,685.09,264.24z"/>
		</g>
		<g>
			<path style="fill:#F37168;" d="M665.82,317.17c-0.21,0-0.42-0.03-0.63-0.08c-0.72-0.2-1.32-0.72-1.6-1.42l-4.7-11.68
				c-0.5-1.23,0.1-2.63,1.33-3.12c1.23-0.49,2.63,0.1,3.12,1.33l3.52,8.74l27.79-21.42c1.05-0.81,2.56-0.61,3.37,0.44
				c0.81,1.05,0.61,2.56-0.44,3.37l-30.3,23.35C666.87,317,666.35,317.17,665.82,317.17z"/>
		</g>
		<polygon style="fill:#9EC8FF;" points="1118.77,199.57 855.66,199.57 862.46,180.88 1125.57,180.88 		"/>
		<polygon style="fill:#9EC8FF;" points="1108.57,227.59 845.46,227.59 852.26,208.91 1115.37,208.91 		"/>
		<path style="fill:#9EC8FF;" d="M816.93,451.61H623.72c-2.52,0-3.84-2.06-2.92-4.59c0.92-2.52,3.74-4.59,6.26-4.59h193.21
			c2.52,0,3.84,2.07,2.92,4.59C822.27,449.55,819.46,451.61,816.93,451.61z"/>
		<path style="fill:#9EC8FF;" d="M809.51,472.02H616.3c-2.52,0-3.84-2.07-2.92-4.59c0.92-2.52,3.74-4.59,6.26-4.59h193.21
			c2.52,0,3.84,2.07,2.92,4.59C814.85,469.95,812.03,472.02,809.51,472.02z"/>
	</g>
	<g>
		<path style="fill:#9CD499;" d="M990.38,644.51c0-3.24,39.05-111.16,12.65-180.63c-18.48-48.64-21.4-107.01-21.4-107.01
			s-36,51.56-11.67,130.36c14.97,48.5,21.08,61.94,22.38,76.21c1.3,14.27-5.84,85.61-5.84,85.61L990.38,644.51z"/>
		<g>
			<path style="fill:#74B570;" d="M986.49,650.25c-0.16,0-0.32-0.03-0.47-0.1c-0.48-0.21-0.77-0.7-0.72-1.22
				c0.07-0.71,7.11-71.39,5.84-85.38c-0.85-9.31-3.72-18.11-10.02-37.39c-3.23-9.88-7.24-22.17-12.31-38.57
				c-12.65-40.98-8.77-74.49-3.3-95.39c5.94-22.69,14.76-35.48,15.13-36.01c0.29-0.42,0.82-0.61,1.31-0.47
				c0.49,0.14,0.84,0.58,0.87,1.09c0.03,0.58,3.12,58.75,21.33,106.65c9.87,25.98,11.85,60.24,5.89,101.82
				c-4.76,33.2-13.25,61.58-16.87,73.7c-0.83,2.76-1.54,5.15-1.59,5.59c0,0.29-0.1,0.51-0.29,0.73l-3.89,4.54
				C987.16,650.1,986.83,650.25,986.49,650.25z M980.67,360.69c-2.96,5.1-8.7,16.26-12.88,32.23c-5.38,20.58-9.17,53.58,3.3,93.96
				c5.06,16.39,9.07,28.67,12.29,38.53c6.36,19.46,9.26,28.34,10.13,37.92c1.13,12.48-4,66.96-5.47,82.05l1.19-1.38
				c0.14-0.71,0.56-2.14,1.62-5.7c22.55-75.38,26.26-133.92,11.04-173.98C986.24,423.1,981.69,374.4,980.67,360.69z"/>
		</g>
		<path style="fill:#9CD499;" d="M998.81,655.54c-5.84-119.98,22.7-185.49,81.07-237.38c58.37-51.89,60.96-65.51,60.96-65.51
			s-9.08,101.18-42.81,136.2c-33.73,35.02-83.02,60.97-90.15,79.13c-7.13,18.16-4.54,79.12-4.54,79.12l-4.54,11.03V655.54z"/>
		<path style="fill:#9CD499;" d="M991.67,665.91c-0.65-1.95,12.32-112.2,59.67-118.69c47.35-6.49,58.37,4.54,90.8-0.65
			c23.14-3.7,40.86-11.03,40.86-11.03s-12.28,31.26-54.48,44.1c-29.83,9.08-68.75-5.84-91.45-1.95
			c-22.7,3.89-34.37,52.53-34.37,52.53l-3.89,25.29L991.67,665.91z"/>
		<g>
			<path style="fill:#74B570;" d="M998.16,649.6c-0.61,0-1.14-0.47-1.19-1.09c-0.07-0.78-6.79-78.23,26.09-137.54
				c16.98-30.63,35.53-48.39,53.46-65.56c16.71-15.99,32.49-31.1,44.45-55.03c0.3-0.59,1.02-0.83,1.61-0.54
				c0.59,0.3,0.83,1.02,0.54,1.61c-12.15,24.3-28.08,39.55-44.94,55.69c-17.8,17.05-36.21,34.67-53.02,64.99
				c-32.51,58.65-25.87,135.39-25.8,136.16c0.06,0.66-0.42,1.24-1.08,1.31C998.23,649.6,998.2,649.6,998.16,649.6z"/>
		</g>
		<g>
			<path style="fill:#74B570;" d="M994.92,634.04c-0.11,0-0.22-0.02-0.34-0.05c-0.64-0.18-1-0.85-0.82-1.49
				c12.42-42.79,26.66-67.76,44.84-78.57c16.25-9.67,33.04-6.7,50.82-3.56c4.35,0.77,8.85,1.56,13.31,2.15
				c38.64,5.07,57.48-4.32,57.67-4.42c0.59-0.3,1.31-0.07,1.62,0.52c0.3,0.59,0.07,1.31-0.51,1.62c-0.78,0.4-19.6,9.84-59.08,4.66
				c-4.51-0.59-9.03-1.39-13.41-2.16c-17.33-3.06-33.69-5.95-49.18,3.26c-17.62,10.48-31.53,35.01-43.76,77.18
				C995.92,633.7,995.44,634.04,994.92,634.04z"/>
		</g>
		<g>
			<path style="fill:#74B570;" d="M1056.86,467.68c-0.36,0-0.71-0.16-0.95-0.47c-0.4-0.52-0.31-1.28,0.22-1.68
				c0.23-0.18,23.3-17.76,55.31-23.9c0.65-0.12,1.28,0.3,1.4,0.95c0.12,0.65-0.3,1.28-0.95,1.4c-31.46,6.04-54.07,23.27-54.3,23.44
				C1057.37,467.6,1057.11,467.68,1056.86,467.68z"/>
		</g>
		<g>
			<path style="fill:#74B570;" d="M1020.21,519.89c-0.21,0-0.42-0.05-0.61-0.17c-0.57-0.34-0.76-1.07-0.42-1.64
				c16.89-28.48,36.67-35.66,79.8-49.18c0.63-0.2,1.31,0.15,1.5,0.79c0.2,0.63-0.15,1.31-0.79,1.5
				c-42.52,13.33-62.01,20.39-78.45,48.11C1021.02,519.68,1020.62,519.89,1020.21,519.89z"/>
		</g>
		<path style="fill:#F39892;" d="M1009.72,695.42h-28.96c-10.23,0-19.01-7.26-20.93-17.31l-9.34-48.84h89.5l-9.34,48.84
			C1028.73,688.16,1019.95,695.42,1009.72,695.42z"/>
		<g>
			<path style="fill:#D54A41;" d="M1037.72,641.72h-84.31c-1.33,0-2.4-1.07-2.4-2.4c0-1.33,1.07-2.4,2.4-2.4h84.31
				c1.33,0,2.4,1.07,2.4,2.4C1040.12,640.65,1039.05,641.72,1037.72,641.72z"/>
		</g>
	</g>
</g>
</svg>
