<?xml version="1.0" encoding="utf-8"?>
<!-- Generator: Adobe Illustrator 23.0.3, SVG Export Plug-In . SVG Version: 6.00 Build 0)  -->
<svg version="1.1" id="Layer_1" xmlns="http://www.w3.org/2000/svg" xmlns:xlink="http://www.w3.org/1999/xlink" x="0px" y="0px"
	 viewBox="0 0 1202 749" style="enable-background:new 0 0 1202 749;" xml:space="preserve">
<g>
	<path style="fill:#E7F3FE;" d="M84.83,699.37c0,0-97.14-120.46-38.86-235.09c58.29-114.63,169.03-87.43,324.47-204.01
		c188.69-141.52,321.19-149.3,489.61-87.43c95.2,34.97,110.75,178.75,262.29,268.12c136.62,80.57,25.26,217.61-46.63,238.98
		c-71.89,21.37-120.46,21.37-120.46,21.37L84.83,699.37z"/>
	<path style="fill:#A2DFF2;" d="M663.2,440.39c-24.25,49.22-54.65,183.72-62.94,191.09c-8.29,7.37-56.19,35.93-64.48,49.75
		c-8.29,13.82-4.61,9.21-0.92,10.13c3.68,0.92,211.88,1.84,211.88,1.84s-23.95-142.79-26.71-143.71
		C717.26,548.57,663.2,440.39,663.2,440.39z"/>
	<path style="fill:#96CFE0;" d="M628.73,692.53c38.24,0.27,78.59,0.48,100.8,0.59l-30.41-181.87
		c-16.22-31.45-35.91-70.85-35.91-70.85c-3.06,6.21-6.21,13.77-9.41,22.26c-3.15,136.6,16.52,174.89,1.74,199.23
		C644,680.87,633.48,689.37,628.73,692.53z"/>
	<path style="fill:#2E5B9A;" d="M1061,702.31H61.28c-4.26,0-7.71-3.45-7.71-7.71c0-4.26,3.45-7.71,7.71-7.71H1061
		c4.26,0,7.71,3.45,7.71,7.71C1068.72,698.86,1065.26,702.31,1061,702.31z"/>
	<path style="fill:#A2DFF2;" d="M790.88,380.98c34.58,31.92,111.55,62.19,111.55,62.19s11.69,108.05,3.72,169.23
		c-7.98,61.18-3.55,73.59-3.55,73.59H743.89c0,0-21.3-29.56-60.29-121.47C658.77,506,663.2,440.39,663.2,440.39l96.65-43.45
		L790.88,380.98z"/>
	<path style="fill:#96CFE0;" d="M743.89,685.99H902.6c0,0-4.43-12.41,3.55-73.59c6.57-50.38-0.2-132.53-2.79-159.97l-14.43-6.19
		c-36.24,10.44-57.12,64.49-63.26,117.31c-4.11,35.34-62.66,70.13-100.96,89.29C737.28,676.82,743.89,685.99,743.89,685.99z"/>
	<path style="fill:#2E5B9A;" d="M704.98,270.08c-19.13,42.61,3.83,82.08,3.14,80.42c-0.7-1.66,28.96-71.94,28.96-71.94
		L704.98,270.08z"/>
	<path style="fill:#F09959;" d="M777.48,301.59l24.26,88.69c0.68,2.5,0.1,5.17-1.53,7.18c-5.69,7.01-13.8,21.43-30.14,26.06
		c-3.18,0.9-7.09,1.14-10.26,1.15c-3.33,0.01-6.2-2.33-6.84-5.61l-16.26-84.12L777.48,301.59z"/>
	<path style="fill:#E38540;" d="M772.84,309l-8.87,3.64l-27.27,22.31l14.64,74.58C776.16,394.05,779.78,383.6,772.84,309z"/>
	<path style="fill:#F09959;" d="M776.58,340.82c-5.37,29.17-27.2,48.91-48.76,44.07c-21.56-4.83-31.85-23.72-29.31-61.58
		c1.99-29.7,16.63-61.99,38.19-57.15C758.26,270.99,781.95,311.64,776.58,340.82z"/>
	<path style="fill:#A2DFF2;" d="M902.43,443.17c32.11,7.25,38.08,72.47,48.52,141.26c1.2,7.92,7.37,74.93,7.37,74.93
		s0.61,12.28-11.67,18.43c-10.49,5.25-14.74,9.21-75.54,9.83c-58.4,0.59-133.69-1.84-133.69-1.84s-0.67-21.73,5.32-32.35
		c9.01-15.97,101.34-38.9,109.94-40.13c1.23-17.2-8.48-79.42,4.91-121.61c9.21-29.02,19.12-44.22,31.52-48.19
		C893.26,442.17,897.67,442.1,902.43,443.17z"/>
	<path style="fill:#96CFE0;" d="M770.44,687.09c28.79,0.43,68.3,0.85,100.67,0.52c60.8-0.61,65.05-4.58,75.54-9.83
		c12.28-6.14,12.9-16.58,12.9-16.58s-6.21-71.31-7.37-79.23c-6.76-46.06-14.06-98.77-31.05-124.22
		c15.97,46.81,18.54,86.3,18.83,103.17c0.14,8.54-0.64,20.24-3.14,28.41c-2.76,9.06-9.83,14.74-20.88,11.67
		c-22.11-6.14-49.75,6.76-49.75,6.76s20.88-7.37,40.54-0.61c19.65,6.76,60.19,51.59,15.97,68.17
		C909.16,680.4,828.11,684.54,770.44,687.09z"/>
	<path style="fill:#96CFE0;" d="M747.66,655.47c0,0,8.19-13.92,24.98-13.92c16.79,0,15.56,27.43,13.1,36.44
		c-2.46,9.01-12.28,9.42-12.28,9.42l-36.03-1.64L747.66,655.47z"/>
	<path style="fill:#75A1DE;" d="M710.72,693.66H484.4c-3.65,0-6.64-2.99-6.64-6.64v-0.96c0-3.65,2.99-6.64,6.64-6.64h226.32
		c3.65,0,6.64,2.99,6.64,6.64v0.96C717.36,690.67,714.37,693.66,710.72,693.66z"/>
	<path style="fill:#F09959;" d="M743.15,657.11c-35.21-12.69-44.45-7.91-52.41-10.24c-19.65-5.73-24.57-0.82-37.26,33.98
		c-2.53,6.93,4.91,7.37,12.28,7.37c7.37,0,16.38-14.33,19.24-15.97c2.87-1.64,10.65-2.46,10.65-2.46s-2.46,0-6.14,7.37
		c-3.69,7.37-8.19,10.24-2.46,10.24c5.73,0,6.55-9.42,17.2-7.37c10.65,2.05,6.55,7.37,33.17,6.96c26.61-0.41,46.7,0,46.27-15.97
		c-0.41-15.15,1.27-22.72-13.1-25.39C759.53,643.6,743.15,657.11,743.15,657.11z"/>
	<path style="fill:#A86B48;" d="M743.61,657.11c23.54-2.66,16.63,26.67,14.18,29.12c-2.46,2.46,13.11,0.86,13.11,0.86
		s7.31-11.76,1.17-25.28s-18.43-14.13-18.43-14.13l-10.44,5.73L743.61,657.11z"/>
	<path style="fill:#2E5B9A;" d="M768.2,654.56c-0.3,3.63-6.48,6.08-13.8,5.47c-7.31-0.61-13-4.05-12.69-7.69
		c0.3-3.63,6.48-6.09,13.79-5.47C762.82,647.48,768.5,650.92,768.2,654.56z"/>
	<path style="fill:#3E6BAB;" d="M766.32,652.75c-0.27,3.25-5.79,5.44-12.32,4.89c-6.53-0.55-11.61-3.62-11.34-6.87
		c0.27-3.25,5.79-5.44,12.33-4.89C761.52,646.43,766.6,649.5,766.32,652.75z"/>
	<path style="fill:#F0CEB4;" d="M762.24,651.24c-0.2,2.34-4.17,3.91-8.87,3.52c-4.7-0.39-8.36-2.61-8.17-4.94
		c0.2-2.34,4.17-3.91,8.87-3.52C758.78,646.69,762.44,648.91,762.24,651.24z"/>
	<g>
		<path style="fill:#75A1DE;" d="M475.68,648.67H246.86c-12.04,0-22.36-8.72-24.53-20.72l-29.84-164.73
			c-2.81-15.54,8.95-29.86,24.53-29.86h228.82c12.04,0,22.36,8.72,24.53,20.72l29.84,164.73
			C503.02,634.35,491.26,648.67,475.68,648.67z"/>
		<path style="fill:#A8CEFF;" d="M486.37,619.43l-30.46-161.32c-2.22-11.75-12.75-20.29-25.04-20.29H198.34
			c-4.88,5.67-7.32,13.43-5.84,21.51l30.89,168.19c2.25,12.26,12.93,21.15,25.39,21.15h212.55
			C477.23,648.67,489.24,634.64,486.37,619.43z"/>
		<path style="fill:#75A1DE;" d="M431.19,670.73h-43.44c-7.75,0-14.03-6.9-14.03-15.41V575.9c0-13.55-10-24.53-22.33-24.53h-22.69
			c-12.33,0-22.33,10.98-22.33,24.53v88.94c0,15.21,11.27,27.51,25.11,27.42l118.55-0.81C450.05,680,441.61,670.73,431.19,670.73z"
			/>
		<path style="fill:#A8CEFF;" d="M308.11,577.68v87.58c0,14.26,11.05,25.91,25.03,26.92l115.7-0.72c-0.01-1.89-9.13-5.35-20.4-5.35
			h-46.99c-8.38,0-15.17-6.79-15.17-15.17v-93.25c0-13.34-10.81-24.15-24.15-24.15h-9.87C318.93,553.53,308.11,564.34,308.11,577.68
			z"/>
	</g>
	<path style="fill:#F09959;" d="M550.28,660.63c17.49-9.71,38.85-6.48,46.63,3.24c7.77,9.71,9.07,16.19-8.42,16.19
		c-17.48,0-52.45,1.3-58.28,0.65C524.38,680.06,550.28,660.63,550.28,660.63z"/>
	<path style="fill:#F09959;" d="M576.19,654.81c18.78-4.53,31.61,6.4,47.27,16.84c13.6,9.07,16.33,17.88,1.29,10.36
		c-22.02-11.01-34.97-12.3-34.97-12.3L576.19,654.81z"/>
	<path style="fill:#F09959;" d="M559.08,660.58c-9.48,0-17.76-3.02-24.46-2.47c-6.7,0.56-27.89,22.32-24.55,23.99
		c0.24,0.12,0.5,0.23,0.78,0.33c5.03,1.85,10.71-0.2,13.55-4.75c3-4.81,7.88-10.42,13.56-8.41c9.48,3.35,19.44,3.03,19.44,3.03
		L559.08,660.58z"/>
	<path style="fill:#F7A96F;" d="M553.52,683.95c-9.71-3.89,5.83-36.26,11.01-36.26c5.18,0,24.61,15.54,24.61,15.54
		s-4.57,2.58-20.07-2.59c-3.89-1.3-7.12,20.72-11.66,23.31C552.87,686.54,553.52,683.95,553.52,683.95z"/>
	<path style="fill:#2E5B9A;" d="M698.49,340.36c-0.9,35.65,11.24,41.68,19.74,46.53c8.5,4.84,45.1-3.16,50.48-11.97
		c13.75-22.56,2.18-43.6,5.25-43.28c3.08,0.32,5.89,9.1,13.9,20.5c0.75,1.06,5.95,8.11,6.23,5.76
		c3.72-31.93,20.35-41.84,16.39-74.13c-2.92-23.81-18.03-21.92-18.03-21.92s-9.75-19.92-40.1-17.66
		c-20.33,1.52-38.46,9.44-59.42,14.83c-20.96,5.39,24.8,52.9,51.98,35.54c27.19-17.36,13.76,20.87,18.05,23.84
		c4.29,2.97,2.06,0.39,4.03,19.96c1.97,19.56-22.88,32.34-30,34.01c-22.77,5.35-26.57,1.6-31.56-6.97
		C701.12,357.95,698.49,340.36,698.49,340.36z"/>
	<path style="fill:#F09959;" d="M792.74,329.32c-2.61,8.99-8.99,14.79-14.26,12.97c-5.26-1.83-5.42-9.13-4.8-19.57
		c0.56-9.42,8.99-14.79,14.26-12.97C793.2,311.57,795.35,320.34,792.74,329.32z"/>
	<g>
		<g>
			<path style="fill:#B7E1FF;" d="M294.44,305.2H101.62c-2.54,0-4.6-2.06-4.6-4.6V218.5c0-2.54,2.06-4.6,4.6-4.6h192.82
				c2.54,0,4.6,2.06,4.6,4.6v82.09C299.05,303.14,296.99,305.2,294.44,305.2z"/>
			<path style="fill:#FFFFFF;" d="M289.81,300.91H106.26c-2.05,0-3.72-1.66-3.72-3.72V241.6c0-2.05,1.67-3.72,3.72-3.72h183.54
				c2.05,0,3.72,1.67,3.72,3.72v55.59C293.52,299.25,291.86,300.91,289.81,300.91z"/>
			<g>
				<path style="fill:#FFFFFF;" d="M111.2,227.74h-3.79c-1.14,0-2.06-0.92-2.06-2.06v-3c0-1.14,0.92-2.06,2.06-2.06h3.79
					c1.14,0,2.06,0.92,2.06,2.06v3C113.26,226.81,112.34,227.74,111.2,227.74z"/>
				<path style="fill:#FFFFFF;" d="M125.59,227.74h-3.79c-1.14,0-2.06-0.92-2.06-2.06v-3c0-1.14,0.92-2.06,2.06-2.06h3.79
					c1.14,0,2.06,0.92,2.06,2.06v3C127.65,226.81,126.73,227.74,125.59,227.74z"/>
				<path style="fill:#FFFFFF;" d="M139.98,227.74h-3.79c-1.14,0-2.06-0.92-2.06-2.06v-3c0-1.14,0.92-2.06,2.06-2.06h3.79
					c1.14,0,2.06,0.92,2.06,2.06v3C142.04,226.81,141.12,227.74,139.98,227.74z"/>
			</g>
			<path style="fill:#B7E1FF;" d="M285.75,251.7H184.73c-1.66,0-3.02-1.36-3.02-3.02c0-1.66,1.36-3.02,3.02-3.02h101.02
				c1.66,0,3.02,1.36,3.02,3.02C288.78,250.34,287.42,251.7,285.75,251.7z"/>
			<path style="fill:#B7E1FF;" d="M209.77,298.32H108.75c-1.66,0-3.02-1.36-3.02-3.02c0-1.66,1.36-3.02,3.02-3.02h101.02
				c1.66,0,3.02,1.36,3.02,3.02C212.79,296.96,211.44,298.32,209.77,298.32z"/>
			<path style="fill:#B7E1FF;" d="M228.17,298.32h-10.03c-0.68,0-1.24-0.56-1.24-1.24v-3.56c0-0.68,0.56-1.24,1.24-1.24h10.03
				c0.68,0,1.24,0.56,1.24,1.24v3.56C229.42,297.76,228.86,298.32,228.17,298.32z"/>
			<path style="fill:#B7E1FF;" d="M243.93,298.32H233.9c-0.68,0-1.24-0.56-1.24-1.24v-3.56c0-0.68,0.56-1.24,1.24-1.24h10.04
				c0.68,0,1.24,0.56,1.24,1.24v3.56C245.17,297.76,244.61,298.32,243.93,298.32z"/>
			<path style="fill:#B7E1FF;" d="M286.73,264.86H119.44c-1.13,0-2.05-0.92-2.05-2.05c0-1.13,0.92-2.05,2.05-2.05h167.29
				c1.13,0,2.05,0.92,2.05,2.05C288.78,263.94,287.85,264.86,286.73,264.86z"/>
			<path style="fill:#B7E1FF;" d="M286.73,273.71H119.44c-1.13,0-2.05-0.92-2.05-2.05c0-1.13,0.92-2.05,2.05-2.05h167.29
				c1.13,0,2.05,0.92,2.05,2.05C288.78,272.79,287.85,273.71,286.73,273.71z"/>
		</g>
		<g>
			<path style="fill:#9EC8FF;" d="M340.1,369.3H147.27c-2.54,0-4.6-2.06-4.6-4.6v-82.09c0-2.54,2.06-4.61,4.6-4.61H340.1
				c2.54,0,4.61,2.06,4.61,4.61v82.09C344.7,367.24,342.64,369.3,340.1,369.3z"/>
			<path style="fill:#FFFFFF;" d="M335.46,365.02H151.91c-2.05,0-3.72-1.67-3.72-3.72v-55.59c0-2.05,1.67-3.72,3.72-3.72h183.55
				c2.05,0,3.72,1.67,3.72,3.72v55.59C339.18,363.35,337.51,365.02,335.46,365.02z"/>
			<g>
				<path style="fill:#FFFFFF;" d="M156.85,291.84h-3.79c-1.14,0-2.06-0.92-2.06-2.06v-3c0-1.14,0.92-2.06,2.06-2.06h3.79
					c1.14,0,2.06,0.92,2.06,2.06v3C158.91,290.92,157.99,291.84,156.85,291.84z"/>
				<path style="fill:#FFFFFF;" d="M171.24,291.84h-3.79c-1.14,0-2.06-0.92-2.06-2.06v-3c0-1.14,0.92-2.06,2.06-2.06h3.79
					c1.14,0,2.06,0.92,2.06,2.06v3C173.3,290.92,172.38,291.84,171.24,291.84z"/>
				<path style="fill:#FFFFFF;" d="M185.63,291.84h-3.79c-1.14,0-2.06-0.92-2.06-2.06v-3c0-1.14,0.92-2.06,2.06-2.06h3.79
					c1.14,0,2.06,0.92,2.06,2.06v3C187.69,290.92,186.77,291.84,185.63,291.84z"/>
			</g>
			<path style="fill:#9EC8FF;" d="M331.41,315.8H230.38c-1.66,0-3.02-1.36-3.02-3.02c0-1.66,1.36-3.02,3.02-3.02h101.02
				c1.66,0,3.02,1.36,3.02,3.02C334.43,314.44,333.07,315.8,331.41,315.8z"/>
			<path style="fill:#9EC8FF;" d="M255.42,362.43H154.4c-1.66,0-3.02-1.36-3.02-3.02c0-1.66,1.36-3.02,3.02-3.02h101.02
				c1.66,0,3.02,1.36,3.02,3.02C258.45,361.07,257.09,362.43,255.42,362.43z"/>
			<path style="fill:#9EC8FF;" d="M273.83,362.43h-10.04c-0.68,0-1.24-0.56-1.24-1.24v-3.56c0-0.68,0.56-1.24,1.24-1.24h10.04
				c0.68,0,1.24,0.56,1.24,1.24v3.56C275.07,361.87,274.51,362.43,273.83,362.43z"/>
			<path style="fill:#9EC8FF;" d="M289.58,362.43h-10.03c-0.68,0-1.24-0.56-1.24-1.24v-3.56c0-0.68,0.56-1.24,1.24-1.24h10.03
				c0.68,0,1.24,0.56,1.24,1.24v3.56C290.82,361.87,290.27,362.43,289.58,362.43z"/>
			<path style="fill:#9EC8FF;" d="M332.38,328.97H165.09c-1.13,0-2.05-0.92-2.05-2.05c0-1.13,0.92-2.05,2.05-2.05h167.29
				c1.13,0,2.05,0.92,2.05,2.05C334.43,328.05,333.51,328.97,332.38,328.97z"/>
			<path style="fill:#9EC8FF;" d="M332.38,337.82H165.09c-1.13,0-2.05-0.92-2.05-2.05c0-1.13,0.92-2.05,2.05-2.05h167.29
				c1.13,0,2.05,0.92,2.05,2.05C334.43,336.9,333.51,337.82,332.38,337.82z"/>
		</g>
	</g>
	<g>
		<path style="fill:#9CD499;" d="M416.58,346.96c0,14.48-11.74,26.23-26.23,26.23c-14.48,0-26.23-11.74-26.23-26.23
			c0-14.48,11.74-26.23,26.23-26.23C404.84,320.74,416.58,332.48,416.58,346.96z"/>
		<g>
			<path style="fill:#FFFFFF;" d="M387.75,356.65c-0.02,0-0.05,0-0.07,0c-0.55-0.02-1.06-0.26-1.42-0.68l-7.12-8.09
				c-0.73-0.83-0.65-2.09,0.18-2.82c0.83-0.73,2.09-0.65,2.82,0.18l5.73,6.51l13.71-13.42c0.79-0.77,2.05-0.76,2.82,0.03
				c0.77,0.79,0.76,2.05-0.03,2.82l-15.22,14.89C388.77,356.45,388.27,356.65,387.75,356.65z"/>
		</g>
	</g>
	<g>
		<path style="fill:#9EC8FF;" d="M583.04,225.14H419.43c-5.14,0-9.34-4.2-9.34-9.34v-56.44c0-5.14,4.2-9.34,9.34-9.34h163.61
			c5.14,0,9.34,4.2,9.34,9.34v56.44C592.38,220.94,588.17,225.14,583.04,225.14z"/>
		<path style="fill:#9EC8FF;" d="M432.11,213.81v41.44l47.76-47.76C479.86,207.5,433.08,213.81,432.11,213.81z"/>
		<path style="fill:#FFFFFF;" d="M575.03,217.7H427.44c-4.36,0-7.92-3.56-7.92-7.92v-44.38c0-4.36,3.56-7.92,7.92-7.92h147.59
			c4.36,0,7.92,3.56,7.92,7.92v44.38C582.95,214.13,579.39,217.7,575.03,217.7z"/>
		<path style="fill:#9EC8FF;" d="M508.52,172.37H434.7c-1.78,0-3.24-1.46-3.24-3.24c0-1.78,1.46-3.24,3.24-3.24h73.82
			c1.78,0,3.24,1.46,3.24,3.24C511.76,170.91,510.3,172.37,508.52,172.37z"/>
		<path style="fill:#9EC8FF;" d="M570.29,184.75H433.15c-0.93,0-1.7-0.76-1.7-1.7v-0.25c0-0.93,0.76-1.7,1.7-1.7h137.13
			c0.93,0,1.7,0.76,1.7,1.7v0.25C571.98,183.98,571.22,184.75,570.29,184.75z"/>
		<path style="fill:#9EC8FF;" d="M570.29,191.79H433.15c-0.93,0-1.7-0.76-1.7-1.7v-0.25c0-0.93,0.76-1.7,1.7-1.7h137.13
			c0.93,0,1.7,0.76,1.7,1.7v0.25C571.98,191.03,571.22,191.79,570.29,191.79z"/>
		<g>
			<path style="fill:#9EC8FF;" d="M541.53,215.11h-3.79c-1.14,0-2.06-0.92-2.06-2.06v-3c0-1.14,0.92-2.06,2.06-2.06h3.79
				c1.14,0,2.06,0.92,2.06,2.06v3C543.6,214.18,542.67,215.11,541.53,215.11z"/>
			<path style="fill:#9EC8FF;" d="M555.92,215.11h-3.79c-1.14,0-2.06-0.92-2.06-2.06v-3c0-1.14,0.92-2.06,2.06-2.06h3.79
				c1.14,0,2.06,0.92,2.06,2.06v3C557.99,214.18,557.06,215.11,555.92,215.11z"/>
			<path style="fill:#9EC8FF;" d="M570.31,215.11h-3.79c-1.14,0-2.06-0.92-2.06-2.06v-3c0-1.14,0.92-2.06,2.06-2.06h3.79
				c1.14,0,2.06,0.92,2.06,2.06v3C572.38,214.18,571.45,215.11,570.31,215.11z"/>
		</g>
	</g>
</g>
</svg>
