<?xml version="1.0" encoding="utf-8"?>
<!-- Generator: Adobe Illustrator 23.0.3, SVG Export Plug-In . SVG Version: 6.00 Build 0)  -->
<svg version="1.1" id="Layer_1" xmlns="http://www.w3.org/2000/svg" xmlns:xlink="http://www.w3.org/1999/xlink" x="0px" y="0px"
	 viewBox="0 0 1202 749" style="enable-background:new 0 0 1202 749;" xml:space="preserve">
<g>
	<path style="fill:#E7F3FE;" d="M184.8,704.38c0,0-234.05-421.52-58.85-519.87c139.78-78.47,262.39,58.85,411.97-36.78
		c192.99-123.38,339.28-40.78,443.85,112.8c78.47,115.25,120.03,189.81,159.39,279.55c61.31,139.78-68.66,171.66-68.66,171.66
		L184.8,704.38z"/>
	<path style="fill:#75A1DE;" d="M831.49,707.13l-106.7,0.19c-1.52,0-2.79-1.55-2.88-3.44c-0.09-1.9,1.04-3.55,2.55-3.69l106.28-9.54
		c8.63-0.78,16.49,2.57,16.71,7.49C847.67,703.07,840.15,707.12,831.49,707.13z"/>
	<g>
		<path style="fill:#F09959;" d="M693.33,692.03c3.68-0.92,10.42-21.05,10.42-21.05S626.7,645,594.01,628.06l-45.53,52.66
			C606.97,695.3,690.6,692.71,693.33,692.03z"/>
		<path style="fill:#F09959;" d="M681.48,663.01c18.96,4.9,49.13-7.36,54.77-6.13c5.64,1.23,29.21,13.49,34.85,19.62
			c5.64,6.13,25.63,25.14,22.04,26.36c-3.59,1.23-28.7-17.16-31.78-17.78c-3.07-0.61-4.61,3.68-29.73,8.58
			c-25.11,4.9-55.47-7.77-55.47-7.77L681.48,663.01z"/>
		<path style="fill:#E38540;" d="M711.65,682.01c0,0,29.21-7.36,32.8-6.13c3.59,1.23,25.37,6.13,40.49,23.3
			c-14.35-4.29-34.85-5.52-40.49-5.52C738.81,693.66,711.65,682.01,711.65,682.01z"/>
		<path style="fill:#F09959;" d="M718.63,669.75c12.48,15.94,44.14,20.84,48.94,26.36c4.8,5.52-11.54,3.17-20.15,2.45
			c-21.93-1.84-37.25,7.05-55.01,1.53c-17.75-5.52-21.76-18.7-21.76-18.7L718.63,669.75z"/>
	</g>
	<path style="fill:#A2DFF2;" d="M484.83,386.8c-56.27,27.65-82.02,47.88-99.49,123.28c-17.47,75.4-18.39,147.13-9.2,200.46
		c62.46,1.81,241.47,8.56,241.47,8.56s-3.41-109.5-21.7-196.14c-17.47-82.76-42.3-114.94-63.45-129.66
		C511.32,378.59,484.83,386.8,484.83,386.8z"/>
	<path style="fill:#96CFE0;" d="M498.45,643.41c-20.17-20.23-14.71-157.24-47.82-218.85l-61.61,114.94l-18.62,95.64
		c-0.16,27.62,1.91,53.12,5.75,75.4c0.22,1.26,1.38,2.12,2.63,2.01c50.86-4.45,53.69-26.56,216.15-51.08
		C598.77,660.89,512.17,657.18,498.45,643.41z"/>
	<path style="fill:#FFFFFF;" d="M479.48,386.83c-7.13,16.64,7.36,38.42,30.24,55.58c22.89,17.17,36.78,7.77,35.56-5.72
		s-2.45-27.79-7.77-36.38c-5.31-8.58-47.82-15.94-47.82-15.94S480.7,383.97,479.48,386.83z"/>
	<path style="fill:#F09959;" d="M506.65,303.44l-21.82,83.35c-2.15,5.58-1.56,11.84,1.59,16.92c8.89,14.35,28,41.94,41.69,38.29
		c18.39-4.9,6.13-39.24,6.13-39.24l24.52-86.45L506.65,303.44z"/>
	<path style="fill:#E38540;" d="M540.09,308.59l-21.79-8.82l-6.54,17.02c3,72.45,12.23,102.02,26.4,110.26
		c0.76-11.17-3.92-24.28-3.92-24.28l17.78-64.38L540.09,308.59z"/>
	<path style="fill:#F09959;" d="M600.6,341.25c-4.25,28.77-15.59,53.43-36.14,50.39c-20.55-3.04-55.84-27.11-51.59-55.89
		c4.25-28.77,50.38-63.23,70.93-60.19C604.36,278.6,604.85,312.48,600.6,341.25z"/>
	<path style="fill:#F09959;" d="M444.19,449.39c1.64-6.54-24.53-10.44-28.7-5.15c-41.18,52.37-105.22,193.83-90.84,219.4
		c16.55,29.43,194.88-9.22,198.55-10.14c3.68-0.92-6.44-28.51-6.44-28.51s-99.93,1.84-116.79-9.5
		C452.4,517.11,431.78,498.91,444.19,449.39z"/>
	<path style="fill:#A2DFF2;" d="M434.08,419.97c-43.25,19.39-90.11,145.29-90.11,145.29s11.03,2.76,46.9,14.71
		c14.91,4.97,29.35,9.58,29.35,9.58s34.33-44.55,45.13-79.46C479.25,465.11,460.74,408.01,434.08,419.97z"/>
	<g>
		<path style="fill:#FFFFFF;" d="M348.6,553.44c40.45,5.22,64.63,19.3,76.91,28.92c1.85-2.57,4.08-5.74,6.55-9.37
			c-8.51-7.98-27.02-22.19-53.94-25.96c-10.93-1.53-19.25-2.52-25.57-3.15C351.05,547.44,349.73,550.65,348.6,553.44z"/>
		<path style="fill:#FFFFFF;" d="M357.88,531.51c-0.69,1.57-1.36,3.1-2.01,4.6c35.53-1.42,69.63,15.89,78.24,26.46
			c1.01,1.24,1.9,2.33,2.7,3.31c0.89-1.37,1.8-2.77,2.71-4.21c-5.83-5.74-16.18-14.96-26.66-19.53
			C391.4,532.77,360.65,531.6,357.88,531.51z"/>
	</g>
	<polygon style="fill:#75A1DE;" points="596.16,661.07 550.79,661.07 544.05,576.36 603.52,576.36 	"/>
	<path style="fill:#F09959;" d="M511.25,625.31c12.57-0.31,33.1-14.71,40.16-18.7c7.05-3.98,46.9-12.57,48.74-8.28
		c1.84,4.29-33.41,13.18-33.41,13.18l26.36,1.23c0,0,7.66,11.65,8.28,19.31s-2.45,18.7-2.45,18.7l-11.65-10.42
		c0,0-9.5,5.21-21.46,12.26c-11.95,7.05-33.41,2.76-42.61,0.92c-9.2-1.84-30.65-8.58-30.65-8.58L511.25,625.31z"/>
	<path style="fill:#E38540;" d="M346.95,621.32c0,0,20.33-11.75,40.77-8.89c11.71,1.64,12.98,3.55,12.26,3.06
		c2.53-4.75,4.89-9.31,7.09-13.7C396.43,602.29,369.13,605.17,346.95,621.32z"/>
	<path style="fill:#6791C9;" d="M988.77,476.95v208.75c0,6.94-6.54,12.57-14.61,12.57h-43.83c-7.48,0-13.54,5.21-13.54,11.65h63.07
		c13.58,0,24.59-9.47,24.59-21.15V476.95H988.77z"/>
	<path style="fill:#95BEF5;" d="M956.71,655.72l-6.96-1.33c-4.59-0.87-7.52-4.82-6.5-8.77l54.55-211.89
		c1.02-3.95,5.61-6.47,10.2-5.59l6.96,1.33c4.59,0.87,7.52,4.82,6.5,8.77l-54.54,211.89C965.9,654.08,961.31,656.6,956.71,655.72z"
		/>
	<path style="fill:#75A1DE;" d="M958.62,656.08l-0.82-0.16c-3.55-0.68-5.81-3.72-5.02-6.78l55.39-215.16
		c0.79-3.05,4.33-4.99,7.88-4.32l0.82,0.16c3.55,0.68,5.81,3.72,5.02,6.78l-55.39,215.16C965.71,654.81,962.16,656.76,958.62,656.08
		z"/>
	<path style="fill:#2E5B9A;" d="M1103.82,722H166.9c-4.33,0-7.85-3.51-7.85-7.85c0-4.33,3.51-7.85,7.85-7.85h936.92
		c4.33,0,7.85,3.51,7.85,7.85C1111.67,718.49,1108.15,722,1103.82,722z"/>
	<path style="fill:#F09959;" d="M516.1,267.5c-42.45,26.33-15.58,54.81-26.87,103.71c6.94,2.37,14.51-11.29,19.35-22.03
		c4.84-10.75,9.14-26.33,10.75-25.79c1.61,0.54,4.3,24.72,4.3,24.72l6.45,3.22c0,0,9.14-16.12,8.6-19.88
		c-0.54-3.76-8.06-22.03,1.07-30.63c5.87-5.52,30.09,6.45,30.09,6.45l-23.64-33.86L516.1,267.5z"/>
	<path style="opacity:0.5;fill:#2E5B9A;" d="M516.1,267.5c-42.45,26.33-15.58,54.81-26.87,103.71c6.94,2.37,14.51-11.29,19.35-22.03
		c4.84-10.75,9.14-26.33,10.75-25.79c1.61,0.54,4.3,24.72,4.3,24.72l6.45,3.22c0,0,9.14-16.12,8.6-19.88
		c-0.54-3.76-8.06-22.03,1.07-30.63c5.87-5.52,30.09,6.45,30.09,6.45l-23.64-33.86L516.1,267.5z"/>
	<path style="fill:#2E5B9A;" d="M609.07,295.98c-2.15,25.79-42.13,17.72-60.72-5.37c-17.73-22.03-32.32-6.85-49.98,0.54
		c-29.56,12.36,3.76-59.11,63.41-47.83C606.53,251.79,610.5,278.81,609.07,295.98z"/>
	<path style="fill:#F09959;" d="M520.2,323.37c1.83,9.62-1.76,18.39-8.03,19.58c-6.27,1.19-12.84-5.64-14.67-15.26
		c-1.83-9.62,1.76-18.39,8.03-19.58C511.79,306.92,518.36,313.75,520.2,323.37z"/>
	<g>
		<path style="fill:#9EC8FF;" d="M971.53,380.42H765.59c-2.8,0-5.07-2.27-5.07-5.07V256.75c0-2.8,2.27-5.07,5.07-5.07h205.94
			c2.8,0,5.07,2.27,5.07,5.07v118.59C976.61,378.14,974.33,380.42,971.53,380.42z"/>
		<path style="fill:#FFFFFF;" d="M965.56,376.47H771.56c-2.44,0-4.42-1.98-4.42-4.42V276.8c0-2.44,1.98-4.42,4.42-4.42h194.01
			c2.44,0,4.42,1.98,4.42,4.42v95.25C969.98,374.49,968,376.47,965.56,376.47z"/>
		<g>
			<path style="fill:#FFFFFF;" d="M775.44,266.2h-3.93c-1.14,0-2.06-0.92-2.06-2.06v-3.13c0-1.14,0.92-2.06,2.06-2.06h3.93
				c1.14,0,2.06,0.92,2.06,2.06v3.13C777.5,265.28,776.57,266.2,775.44,266.2z"/>
			<path style="fill:#FFFFFF;" d="M790.08,266.2h-3.93c-1.14,0-2.06-0.92-2.06-2.06v-3.13c0-1.14,0.92-2.06,2.06-2.06h3.93
				c1.14,0,2.06,0.92,2.06,2.06v3.13C792.14,265.28,791.22,266.2,790.08,266.2z"/>
			<path style="fill:#FFFFFF;" d="M804.73,266.2h-3.93c-1.14,0-2.06-0.92-2.06-2.06v-3.13c0-1.14,0.92-2.06,2.06-2.06h3.93
				c1.14,0,2.06,0.92,2.06,2.06v3.13C806.79,265.28,805.86,266.2,804.73,266.2z"/>
		</g>
		<g>
			<g>
				<path style="fill:#9EC8FF;" d="M963.11,370.34H774.02v-91.82h189.09V370.34z M774.69,369.66h187.74v-90.46H774.69V369.66z"/>
			</g>
			<g>
				<rect x="774.35" y="351.43" style="fill:#9EC8FF;" width="188.41" height="0.68"/>
			</g>
			<g>
				<rect x="774.35" y="333.2" style="fill:#9EC8FF;" width="188.41" height="0.68"/>
			</g>
			<g>
				<rect x="774.35" y="314.97" style="fill:#9EC8FF;" width="188.41" height="0.68"/>
			</g>
			<g>
				<rect x="774.35" y="296.75" style="fill:#9EC8FF;" width="188.41" height="0.68"/>
			</g>
			<g>
				<rect x="935.51" y="278.86" style="fill:#9EC8FF;" width="0.68" height="91.14"/>
			</g>
			<g>
				<rect x="908.6" y="278.86" style="fill:#9EC8FF;" width="0.68" height="91.14"/>
			</g>
			<g>
				<rect x="881.68" y="278.86" style="fill:#9EC8FF;" width="0.68" height="91.14"/>
			</g>
			<g>
				<rect x="854.76" y="278.86" style="fill:#9EC8FF;" width="0.68" height="91.14"/>
			</g>
			<g>
				<rect x="827.85" y="278.86" style="fill:#9EC8FF;" width="0.68" height="91.14"/>
			</g>
			<g>
				<rect x="800.93" y="278.86" style="fill:#9EC8FF;" width="0.68" height="91.14"/>
			</g>
		</g>
		<path style="fill:#F39892;" d="M955.72,290.37h-6.33c-2.42,0-4.39-1.98-4.39-4.39s1.98-4.39,4.39-4.39h6.33
			c2.42,0,4.39,1.98,4.39,4.39S958.13,290.37,955.72,290.37z"/>
		<path style="fill:#F39892;" d="M957.64,327.15h-10.17c-1.36,0-2.47-1.11-2.47-2.47v-3.84c0-1.36,1.11-2.47,2.47-2.47h10.17
			c1.36,0,2.47,1.11,2.47,2.47v3.84C960.11,326.04,959,327.15,957.64,327.15z"/>
		<path style="fill:#9EC8FF;" d="M821.3,312.64h-13.78c-1.94,0-3.53-1.59-3.53-3.53v-5.92c0-1.94,1.59-3.53,3.53-3.53h13.78
			c1.94,0,3.53,1.59,3.53,3.53v5.92C824.83,311.05,823.24,312.64,821.3,312.64z"/>
		<path style="fill:#FFFFFF;" d="M819.36,310.81h-9.9c-1.39,0-2.54-1.14-2.54-2.54v-4.25c0-1.39,1.14-2.54,2.54-2.54h9.9
			c1.39,0,2.54,1.14,2.54,2.54v4.25C821.89,309.67,820.75,310.81,819.36,310.81z"/>
		<path style="fill:#9EC8FF;" d="M929.2,367.2h-13.78c-1.94,0-3.53-1.59-3.53-3.53v-5.92c0-1.94,1.59-3.53,3.53-3.53h13.78
			c1.94,0,3.53,1.59,3.53,3.53v5.92C932.73,365.61,931.14,367.2,929.2,367.2z"/>
		<path style="fill:#FFFFFF;" d="M927.26,365.37h-9.9c-1.39,0-2.54-1.14-2.54-2.54v-4.25c0-1.39,1.14-2.54,2.54-2.54h9.9
			c1.39,0,2.54,1.14,2.54,2.54v4.25C929.79,364.23,928.65,365.37,927.26,365.37z"/>
		<path style="fill:#9EC8FF;" d="M877.55,303.44h-11.65c-0.79,0-1.43-0.64-1.43-1.43c0-0.79,0.64-1.43,1.43-1.43h11.65
			c0.79,0,1.43,0.64,1.43,1.43C878.98,302.8,878.34,303.44,877.55,303.44z"/>
		<path style="fill:#9EC8FF;" d="M877.55,307.94h-11.65c-0.79,0-1.43-0.64-1.43-1.43c0-0.79,0.64-1.43,1.43-1.43h11.65
			c0.79,0,1.43,0.64,1.43,1.43C878.98,307.3,878.34,307.94,877.55,307.94z"/>
		<path style="fill:#9EC8FF;" d="M851.81,357.7h-11.65c-0.79,0-1.43-0.64-1.43-1.43c0-0.79,0.64-1.43,1.43-1.43h11.65
			c0.79,0,1.43,0.64,1.43,1.43C853.24,357.06,852.59,357.7,851.81,357.7z"/>
		<path style="fill:#9EC8FF;" d="M851.81,362.2h-11.65c-0.79,0-1.43-0.64-1.43-1.43c0-0.79,0.64-1.43,1.43-1.43h11.65
			c0.79,0,1.43,0.64,1.43,1.43C853.24,361.55,852.59,362.2,851.81,362.2z"/>
		<path style="fill:#9EC8FF;" d="M791.42,323.67h-11.65c-0.79,0-1.43-0.64-1.43-1.43c0-0.79,0.64-1.43,1.43-1.43h11.65
			c0.79,0,1.43,0.64,1.43,1.43C792.85,323.03,792.21,323.67,791.42,323.67z"/>
		<path style="fill:#9EC8FF;" d="M791.42,328.17h-11.65c-0.79,0-1.43-0.64-1.43-1.43s0.64-1.43,1.43-1.43h11.65
			c0.79,0,1.43,0.64,1.43,1.43S792.21,328.17,791.42,328.17z"/>
		<path style="fill:#9EC8FF;" d="M903.91,303.44h-11.65c-0.79,0-1.43-0.64-1.43-1.43c0-0.79,0.64-1.43,1.43-1.43h11.65
			c0.79,0,1.43,0.64,1.43,1.43C905.35,302.8,904.7,303.44,903.91,303.44z"/>
		<path style="fill:#9EC8FF;" d="M903.91,307.94h-11.65c-0.79,0-1.43-0.64-1.43-1.43c0-0.79,0.64-1.43,1.43-1.43h11.65
			c0.79,0,1.43,0.64,1.43,1.43C905.35,307.3,904.7,307.94,903.91,307.94z"/>
		<g>
			<path style="fill:#9CD499;" d="M823.16,349.73h-16.27c-1.76,0-3.21-1.44-3.21-3.21v-6.77c0-1.76,1.44-3.21,3.21-3.21h16.27
				c1.76,0,3.21,1.44,3.21,3.21v6.76C826.36,348.29,824.92,349.73,823.16,349.73z"/>
			<g>
				<path style="fill:#FFFFFF;" d="M813.8,347.56c-0.02,0-0.03,0-0.05,0c-0.37-0.01-0.72-0.18-0.97-0.46l-3.23-3.67
					c-0.49-0.56-0.44-1.42,0.12-1.91c0.56-0.49,1.42-0.44,1.91,0.12l2.28,2.6l5.87-5.75c0.54-0.52,1.39-0.51,1.92,0.02
					c0.52,0.54,0.51,1.39-0.02,1.92l-6.89,6.75C814.5,347.42,814.16,347.56,813.8,347.56z"/>
			</g>
		</g>
		<g>
			<path style="fill:#9CD499;" d="M903.77,294.25H887.5c-1.76,0-3.21-1.44-3.21-3.21v-6.77c0-1.76,1.44-3.21,3.21-3.21h16.27
				c1.76,0,3.21,1.44,3.21,3.21v6.76C906.98,292.8,905.54,294.25,903.77,294.25z"/>
			<g>
				<path style="fill:#FFFFFF;" d="M894.42,292.07c-0.02,0-0.03,0-0.05,0c-0.37-0.01-0.72-0.18-0.97-0.46l-3.23-3.67
					c-0.49-0.56-0.44-1.42,0.12-1.91c0.56-0.5,1.42-0.44,1.91,0.12l2.28,2.6l5.87-5.75c0.53-0.52,1.39-0.51,1.92,0.02
					c0.52,0.53,0.51,1.39-0.02,1.92l-6.89,6.75C895.11,291.94,894.77,292.07,894.42,292.07z"/>
			</g>
		</g>
		<path style="fill:#9EC8FF;" d="M901.16,342.68c0,3.39-2.74,6.13-6.13,6.13c-3.39,0-6.13-2.74-6.13-6.13
			c0-3.39,2.74-6.13,6.13-6.13C898.41,336.55,901.16,339.29,901.16,342.68z"/>
		<path style="fill:#9EC8FF;" d="M821.77,361.38c0,3.38-2.74,6.13-6.13,6.13c-3.39,0-6.13-2.75-6.13-6.13
			c0-3.39,2.74-6.13,6.13-6.13C819.02,355.25,821.77,357.99,821.77,361.38z"/>
	</g>
	<g>
		<path style="fill:#9EC8FF;" d="M857.32,435.78H732.17c-1.17,0-2.12-0.95-2.12-2.12v-69.74c0-1.17,0.95-2.12,2.12-2.12h125.15
			c1.17,0,2.12,0.95,2.12,2.12v69.74C859.44,434.82,858.49,435.78,857.32,435.78z"/>
		<path style="fill:#FFFFFF;" d="M854.62,432.52H734.87c-1.1,0-1.98-0.89-1.98-1.98v-63.51c0-1.1,0.89-1.98,1.98-1.98h119.75
			c1.1,0,1.98,0.89,1.98,1.98v63.51C856.6,431.63,855.71,432.52,854.62,432.52z"/>
		<path style="fill:#9EC8FF;" d="M850.95,428.38H738.53c-1.23,0-2.23-1-2.23-2.23v-54.74c0-1.23,1-2.23,2.23-2.23h112.42
			c1.23,0,2.23,1,2.23,2.23v54.74C853.18,427.38,852.19,428.38,850.95,428.38z"/>
		<circle style="fill:#FFFFFF;" cx="794.74" cy="398.78" r="20.54"/>
		<path style="fill:#9EC8FF;" d="M812.43,398.78c0,9.77-7.92,17.69-17.69,17.69c-9.77,0-17.69-7.92-17.69-17.69
			s7.92-17.69,17.69-17.69C804.51,381.09,812.43,389.01,812.43,398.78z"/>
		<polygon style="fill:#FFFFFF;" points="803.46,397.83 797,401.57 790.53,405.3 790.53,397.83 790.53,390.37 797,394.1 		"/>
	</g>
	<path style="fill:#9EC8FF;" d="M721.84,184.51h-80.92c-2.02,0-3.68-1.65-3.68-3.68c0-2.02,1.66-3.68,3.68-3.68h80.92
		c2.02,0,3.68,1.65,3.68,3.68C725.52,182.86,723.86,184.51,721.84,184.51z"/>
	<path style="fill:#9EC8FF;" d="M933.34,495.33h-80.92c-2.02,0-3.68-1.66-3.68-3.68c0-2.02,1.66-3.68,3.68-3.68h80.92
		c2.02,0,3.68,1.66,3.68,3.68C937.02,493.68,935.36,495.33,933.34,495.33z"/>
	<path style="fill:#9EC8FF;" d="M933.34,508.82h-80.92c-2.02,0-3.68-1.66-3.68-3.68c0-2.02,1.66-3.68,3.68-3.68h80.92
		c2.02,0,3.68,1.66,3.68,3.68C937.02,507.16,935.36,508.82,933.34,508.82z"/>
	<path style="fill:#9EC8FF;" d="M933.34,523.53h-80.92c-2.02,0-3.68-1.66-3.68-3.68c0-2.02,1.66-3.68,3.68-3.68h80.92
		c2.02,0,3.68,1.66,3.68,3.68C937.02,521.88,935.36,523.53,933.34,523.53z"/>
	<path style="fill:#9EC8FF;" d="M773.95,198.61H640.91c-2.02,0-3.68-1.66-3.68-3.68c0-2.02,1.66-3.68,3.68-3.68h133.03
		c2.02,0,3.68,1.66,3.68,3.68C777.63,196.96,775.97,198.61,773.95,198.61z"/>
	<path style="fill:#74B570;" d="M199.6,402.48c-21.15,19.31-11.95,38.62,3.68,74.48c15.63,35.86,18.39,168.28,18.39,168.28
		l-12.87-1.84c0,0,1.84-136.09-15.63-172.87c-17.47-36.78-24.83-55.17-40.46-43.22C137.07,439.27,199.6,402.48,199.6,402.48z"/>
	<path style="fill:#9CD499;" d="M211.21,377.48c-2.57-11.44-17.82-23.83-38.22-34.33c3.03,16.88,12.76,44.48,2.69,50.14
		c-13.57,7.63-1.32-30.9-6.56-52.08c-19.15-9.35-42.19-17-63.41-20.8c0.03,0.08,0.05,0.15,0.09,0.23
		c11.95,30.35,27.59,42.3,21.15,46.9c-4.84,3.46-20.62-31.59-41.44-49.56c-15.63-0.83-28.86,1.29-36.68,7.48
		c-12.09,9.57-20.21,18.07-8.05,47.22c6.95,4.96,15.95,8.53,26.41,9.57c27.59,2.76,40.46,3.68,21.15,12.87
		c-9.46,4.5-25.31-0.25-38.16-3.15c4.17,7.68,9.29,16.38,15.52,26.28c3.95,6.28,8.3,11.73,12.92,16.45
		c8.89,1.7,16.64,1.72,20.75-0.04c12.87-5.52,45.98-22.99,54.25-15.63c8.1,7.2-61.31,11.76-56.5,30.06
		c33.64,19.38,72.14,10.16,78.94-7.64C185.2,417.55,218.95,411.93,211.21,377.48z"/>
	<path style="fill:#74B570;" d="M141.66,508.23c36.78-27.59,74.48-1.84,93.79,27.59c19.31,29.43,5.52,95.63,5.52,95.63
		s-7.36,0-7.36-2.76c0-2.76,20.23-78.16-27.59-112.18c-29.91-21.28-51.49-11.03-54.25-0.92c-2.76,10.11,11.95,28.51,11.95,28.51
		L141.66,508.23z"/>
	<path style="fill:#9CD499;" d="M226.26,451.53c-36.78,0-48.74,57.01-38.62,90.12c10.12,33.1,23.91,94.71,23.91,94.71l9.2-9.2
		c0,0-34.94-86.44-26.67-125.06c8.28-38.62,28.51-45.06,32.18-45.06C229.94,457.04,226.26,451.53,226.26,451.53z"/>
	<path style="fill:#74B570;" d="M195.41,541.9c-2.59-3.43-5.78-6.26-9.68-8.14c0.51,2.74,1.15,5.38,1.91,7.88
		c4.61,15.08,9.98,36.08,14.46,54.48c0.41-2.36,1.04-5.98,2.01-11.59c0.23-1.32,0.41-2.76,0.53-4.28
		C201.04,568,197.64,554.65,195.41,541.9z"/>
	<path style="fill:#9CD499;" d="M185.36,542.17c-69.88-29.43-33.07-69.8-94.67-43.14c-4.34,1.88-9.63,6.62-14.92,13.15
		c5.49,1.56,12.13,2.67,19.52,1.57c18.39-2.76,11.95,11.95-18.39,15.63c-5.72,0.69-10.36,1.65-14.22,3
		c-14.46,27.77-20.97,64.3,9.62,77c6.03,2.5,13.48,3.93,21.77,4.47c9.44-7.5-2.3-50.92,12.25-44.93
		c13.97,5.75-4.38,37.22-1.86,45.15c13.79-0.25,29.06-2.5,43.66-6.12c5.77-3.24,10.18-7.58,11.54-13.28
		c4.6-19.31-25.75-31.26-26.67-47.82c-0.84-15.22,11.12,33.48,42.83,40.64C204.48,574.1,218.02,555.93,185.36,542.17z"/>
	<path style="fill:#9CD499;" d="M235.15,490.15c-7.36-15.63,11.95-19.31,11.03-7.36c-0.81,10.59-0.91,36.34,9.96,43.35
		c18.74-2.03,44.23-9.58,63.5-21.09c0.24-1.55,0.01-3.16-0.81-4.79c-8.28-16.55-61.61-30.34-45.06-35.86
		c13.18-4.39,36.28,21.54,54.89,34.61c11.18-8.48,18.67-18.59,18.67-29.88c0-15.28-18.56-32.57-42.57-40.84
		c-10.8,1.09-20.84,7-36.51,15.88c-23.16,13.12-17.8-8.09,4.09-20.68c-18.9,0.98-37.74,9.05-51.64,28.35c0,0,1.31,8.25-7.41,21
		c-23.81,34.8,3.67,55.11,36.51,53.79C247.95,517.45,240.23,500.95,235.15,490.15z"/>
	<path style="fill:#74B570;" d="M143.88,506.67c-17.98,13.9-37.96,30.14-62.48,41.18c-24.52,11.03-19.62,47-19.62,47
		s-3.68-31.06,16.76-41.69c20.44-10.63,33.92-23.3,49.45-25.75c15.53-2.45,24.11-4.9,24.11-4.9s-4.9-9.81-2.04-13.49
		C152.92,505.34,143.88,506.67,143.88,506.67z"/>
	<path style="fill:#74B570;" d="M55.24,343.5c65.8,17.57,114.03,59.67,123.02,69.89c8.99,10.22,8.99,13.08,8.99,13.08l-6.95,13.08
		l-3.27-1.63c0,0,5.31-11.04-8.58-25.34c-23.96-24.67-53.13-44.14-73.16-52.72C75.27,351.26,55.24,343.5,55.24,343.5z"/>
	<path style="fill:#F39892;" d="M231.01,707.72H217.6c-21.11,0-38.23-17.12-38.23-38.23v-51.9h89.88v51.9
		C269.24,690.61,252.12,707.72,231.01,707.72z"/>
</g>
</svg>
