<?xml version="1.0" encoding="utf-8"?>
<!-- Generator: Adobe Illustrator 23.0.3, SVG Export Plug-In . SVG Version: 6.00 Build 0)  -->
<svg version="1.1" id="Layer_1" xmlns="http://www.w3.org/2000/svg" xmlns:xlink="http://www.w3.org/1999/xlink" x="0px" y="0px"
	 viewBox="0 0 1202 749" style="enable-background:new 0 0 1202 749;" xml:space="preserve">
<g>
	<path style="fill:#E7F3FE;" d="M173.07,681.62c0,0-262.85-165.11-83.21-342.1S509.88-18.44,671.03,51.57
		s146.65,158.5,323.65,286.62c176.99,128.12,136.05,229.83,104.35,281.34c-31.7,51.51-36.98,64.72-36.98,64.72L173.07,681.62z"/>
	<path style="fill:#303C60;" d="M373.83,212.97c38.92-34.67,67.51-13.99,88.79,9.12c16.97,18.42,19.33,22.51,33.35,41.59
		c2.08,2.83,3.68,5.98,3.75,9.49c0.39,21.1,11.19,110.31-0.81,141.09c-13.99,35.88-186.5,52.3-186.5,52.3L373.83,212.97z"/>
	<g>
		<path style="fill:#303C60;" d="M484.32,434.7c-0.94,0-1.73-0.74-1.77-1.69c-0.05-0.98,0.7-1.82,1.69-1.87
			c5.12-0.26,9.28-2.56,12.74-7.04c19.34-25.06,8.47-108.73-1.01-154.22c-0.2-0.96,0.42-1.9,1.38-2.1c0.96-0.2,1.9,0.42,2.1,1.38
			c2.07,9.93,8.99,45.2,11.15,81.93c2.22,37.73-1.42,63.02-10.81,75.19c-4.07,5.27-9.24,8.1-15.37,8.42
			C484.38,434.7,484.35,434.7,484.32,434.7z"/>
	</g>
	<path style="fill:#303C60;" d="M388.43,202.63c-74.8,41.36-29.19,181.23-124.07,231.1c-26.28,13.82-107.04,83.93-54.13,176.37
		c34.61,60.47,138.05,47.44,172.11-6.08C416.41,550.5,388.43,202.63,388.43,202.63z"/>
	<g>
		<path style="fill:#303C60;" d="M189.36,520.65c-0.08,0-0.16-0.01-0.24-0.02c-0.97-0.13-1.66-1.02-1.53-2
			c0.07-0.49,1.69-12.27,9.15-27.87c6.87-14.38,20.22-34.81,44.77-50.43c43.9-27.94,73.04-54.26,107.49-184.04
			c0.25-0.95,1.23-1.51,2.17-1.26c0.95,0.25,1.51,1.22,1.26,2.17c-16.65,62.71-33.16,105.11-51.95,133.42
			c-17.45,26.29-35.41,38.92-57.07,52.71c-45.6,29.02-52.24,75.3-52.3,75.77C191,520,190.24,520.65,189.36,520.65z"/>
	</g>
	<g>
		<path style="fill:#303C60;" d="M191,484.43c-0.33,0-0.65-0.09-0.95-0.28c-0.83-0.52-1.08-1.62-0.55-2.45
			c10.85-17.17,24.66-31.26,41.06-41.86c61.65-39.87,71.85-62.79,122.77-194.07c0.36-0.92,1.39-1.37,2.3-1.01
			c0.92,0.36,1.37,1.39,1.01,2.3c-25.46,65.64-40.67,104.1-57.31,131.36c-17.87,29.28-38.04,45.78-66.84,64.41
			c-15.97,10.32-29.42,24.04-39.99,40.77C192.16,484.13,191.58,484.43,191,484.43z"/>
	</g>
	<path style="fill:#F09959;" d="M385.85,289.92c-25.76,53.49-21.79,102.03-21.79,102.03s2.97,18.82,14.86,22.78
		c11.89,3.96,28.73-7.93,27.74-23.77c-0.99-15.85,3.96-54.48,9.91-68.35C422.5,308.74,385.85,289.92,385.85,289.92z"/>
	<path style="fill:#6791C9;" d="M249.77,661.59c1.62,14.6-2.03,13.38,10.95,15.81c12.97,2.43,36.08-6.49,36.08-6.49l-25.95-48.25
		L249.77,661.59z"/>
	<path style="fill:#F09959;" d="M367.16,363.22c-7.3,23.72-62.03,5.47-81.19,10.95c-19.16,5.47-35.58,85.75-38.31,157.81
		c-2.74,72.06,0.91,129.53,8.21,138.65c7.3,9.12,127.71,12.77,138.66,9.12c10.95-3.65-91.22-49.26-91.22-49.26
		s-6.39-83.92,1.82-126.8c8.21-42.87,82.1-99.43,82.1-99.43L367.16,363.22z"/>
	<path style="fill:#F09959;" d="M392.7,370.52c19.16,29.19,69.33,25.54,86.66,49.26c17.33,23.72,53.82,154.16,53.82,154.16
		l38.31-132.27c0,0,31.07-5.22,20.98,16.42c-17.95,38.48-24.64,162.65-44.1,180.29c-21.64,19.61-43.18,3.65-55.33-30.69
		c-11.76-33.22-41.05-104.9-62.03-132.27c-20.98-27.37-43.79-71.15-43.79-71.15L392.7,370.52z"/>
	<path style="fill:#75A1DE;" d="M309.69,374.17c38.31,44.7,113.11,42.87,129.53,37.4c16.42-5.47,16.42-5.47,16.42-5.47
		s12.77-4.56,23.72,8.21c10.95,12.77,37.4,93.04,41.96,111.29c4.56,18.24,11.86,48.35,11.86,48.35s-19.57,23.49-19.57,47.21
		c0,23.72,8.31,23.92,8.31,23.92s-24.32-5.45-29.79-20.04c-5.47-14.6-54.73-146.87-54.73-146.87l-135.92,2.74l1.83,149.6
		c0,0-11.86-10.95-28.28,0c-16.42,10.95-21.89,36.49-19.16,40.14c2.74,3.65-5.47,3.65-5.47,0.91c0-2.74-15.51-69.33-4.56-178.79
		c10.95-109.46,31.93-121.32,43.79-122.23C301.48,369.6,309.69,374.17,309.69,374.17z"/>
	<g>
		<path style="fill:#6791C9;" d="M516.36,643.18c0.26,0.09,0.41,0.09,0.41,0.09S516.61,643.24,516.36,643.18z"/>
		<path style="fill:#6791C9;" d="M521.62,577.26c-7.91,2.43-21.29,30.41-21.29,30.41s-30.41-66.29-39.53-158.12l-10.85,62.3
			c14.98,40.23,38.5,103.36,42.19,113.18c5.01,13.35,25.2,18.92,27.97,19.54c-0.76-0.26-2.43-1.27-3.81-5.27
			c-0.8-0.73-5.37-2.86-6.22-3.65c-7.3-6.69-4.26-22.5,0.61-40.14C515.54,577.86,529.53,574.82,521.62,577.26z"/>
	</g>
	<path style="fill:#6791C9;" d="M308.02,480.76l-15.08-68.93c-16.42,23.11-18.24,102.17-11.55,156.3
		c5.49,44.39,13.69,55.91,19.33,60.54c1.67,0.98,2.58,1.83,2.58,1.83l-1.83-149.6L308.02,480.76z"/>
	<path style="fill:#75A1DE;" d="M264.36,411.23c27.98,75.41,13.99,90.62,50.8,179.13c20.56,49.44,60.21,86.66,60.21,86.66
		s31.93,8.21,72.06,5.47c40.14-2.74,69.52-5.49,69.52-5.49s-42.16-25.52-43.98-42.85c-1.82-17.33-9.74-86.08,0.6-134.73
		c8.07-37.99-25.23-75.99-25.23-75.99l-55.64-2.74L264.36,411.23z"/>
	<path style="opacity:0.5;fill:#6791C9;" d="M313.63,526.78c-4.87-17.64,20.68,5.47,62.64,9.73c41.96,4.26,88.79-2.43,65.68,4.86
		c-23.11,7.3-86.36-3.65-74.8,19.46c13.6,27.2,29.66,53.52,52.91,69.33c15.2,10.34,51.69,20.07,16.42,14.6
		c-35.27-5.47-72.98-46.83-89.4-73.59C330.65,544.42,314.71,530.71,313.63,526.78z"/>
	<path style="fill:#E38540;" d="M406.55,384.01c0.37-18.21,4.81-49.28,10.01-61.41c4.26-9.94-13.35-22.41-23.67-28.69l-8.73-0.37
		c-1.33,2.9-2.58,5.78-3.74,8.64c-9.22,60.54,18.37,85.56,31.54,90.6c5.68,2.17,12.05,2.41,17.49,1.92
		C421.31,391.81,413.39,388.52,406.55,384.01z"/>
	<g>
		<path style="fill:#F5CE5C;" d="M389.84,410.93c-3.16,0-6.45-0.38-9.71-1.18c-7.61-1.86-25.77-8.91-29.99-34.24
			c-0.09-0.55,0.28-1.07,0.83-1.16c0.55-0.09,1.07,0.28,1.16,0.83c4.03,24.15,21.26,30.86,28.48,32.62
			c11.22,2.74,23.13,0.2,27.7-5.89c3.67-4.89,1.47-15.29,1.44-15.4c-0.12-0.54,0.23-1.08,0.77-1.2c0.54-0.12,1.08,0.23,1.2,0.77
			c0.1,0.46,2.42,11.41-1.8,17.04C406.18,408.1,398.47,410.93,389.84,410.93z"/>
	</g>
	<path style="fill:#F09959;" d="M475.68,313.71c-6.19,32.67-20.48,59.03-44.66,54.07c-24.18-4.97-49.61-39.48-42.92-72.06
		c6.69-32.58,31.72-54.96,55.91-49.99C468.19,250.7,483.92,270.17,475.68,313.71z"/>
	<path style="fill:#F09959;" d="M561.76,475.08c0,0-44.7,120.11-46.83,132.58c-2.13,12.47,2.13,20.37,3.35,20.37
		c1.22,0,39.23-65.07,39.23-65.07L561.76,475.08z"/>
	<path style="fill:#F09959;" d="M563.58,469.81c3.65-12.16-2.03-27.57-2.03-27.57l16.22,2.03L563.58,469.81z"/>
	<g>
		<path style="fill:#4381DB;" d="M581.4,449.07h-45.25c-2.75,0-4.72-2.65-3.93-5.28l28.57-95.78c0.52-1.74,2.12-2.93,3.93-2.93
			h45.25c2.75,0,4.72,2.65,3.93,5.28l-28.57,95.78C584.82,447.87,583.22,449.07,581.4,449.07z"/>
		<path style="fill:#2E5B9A;" d="M587.08,449.07h-45.25c-2.75,0-4.72-2.65-3.93-5.28l28.57-95.78c0.52-1.74,2.12-2.93,3.93-2.93
			h45.25c2.75,0,4.72,2.65,3.93,5.28l-28.57,95.78C590.49,447.87,588.89,449.07,587.08,449.07z"/>
		<path style="fill:#9CBEED;" d="M554.32,379.64c-4.82,17.38-8.07,31.66-7.25,31.89s5.39-13.68,10.22-31.06
			c4.82-17.38,8.07-31.66,7.25-31.88C563.71,348.35,559.14,362.26,554.32,379.64z"/>
	</g>
	<path style="fill:#F09959;" d="M585.07,477.52c1.34-15.79,15.02-30.6,20.22-35.32c1.58-1.44,2.48-3.47,2.46-5.61
		c-0.08-7.87-0.42-26.46-2.05-28.63c-2.07-2.76-7.26-38.35-9.67-36.97c-2.42,1.38,0.69,32.48,0.69,32.48s-5.87-2.76-8.98-4.15
		c-3.11-1.38-15.89,12.78-15.89,12.78s-5.99,15.14,10.39,8.66c19.46-7.7,4.86,13.78-8.11,27.57c-10.69,11.36-1.59,13.87-1.59,13.87
		l8.64-0.34L585.07,477.52z"/>
	<g>
		<path style="fill:#F5CE5C;" d="M580.17,489.94c-1.43,0-3.06-0.22-4.69-0.73c-4.21-1.31-11.56-5.54-13.5-19.16
			c-0.08-0.55,0.3-1.06,0.86-1.14c0.55-0.08,1.06,0.3,1.14,0.86c1.66,11.64,7.31,15.89,11.75,17.4c3.63,1.24,6.63,0.67,7.39,0.24
			c0.05-0.35,0.28-0.66,0.62-0.8c0.52-0.21,1.1,0.04,1.31,0.56c0.2,0.51,0.08,1.08-0.32,1.51
			C584.02,489.45,582.3,489.94,580.17,489.94z"/>
	</g>
	<g>
		<path style="fill:#F5CE5C;" d="M578.47,486.03c-1.34,0-2.74-0.1-4.08-0.29c-7.82-1.14-13.06-5.1-14.38-10.89
			c-0.12-0.54,0.22-1.08,0.76-1.21c0.54-0.12,1.08,0.22,1.21,0.76c1.26,5.52,6.27,7.86,10.26,8.86c5.59,1.4,10.84,0.54,11.46-0.19
			c0.27-0.48,0.88-0.64,1.36-0.37c0.49,0.27,0.65,0.9,0.37,1.39C584.69,485.43,581.76,486.03,578.47,486.03z"/>
	</g>
	<g>
		<path style="fill:#FFFFFF;" d="M447.92,330.72c-0.49,0-0.99-0.04-1.49-0.11c-7.67-1.18-12.31-11.08-10.55-22.54
			c0.82-5.32,2.92-10.15,5.94-13.58c3.21-3.66,7.07-5.35,10.88-4.77c7.67,1.17,12.31,11.08,10.55,22.54
			C461.61,322.97,455.04,330.72,447.92,330.72z M451.24,293.16c-2.29,0-4.65,1.28-6.75,3.67c-2.57,2.93-4.38,7.11-5.1,11.78
			c-1.4,9.18,2.07,17.64,7.58,18.49c5.51,0.85,11.36-6.2,12.76-15.37c1.4-9.18-2.07-17.64-7.58-18.49
			C451.85,293.18,451.55,293.16,451.24,293.16z"/>
	</g>
	<g>
		<path style="fill:#FFFFFF;" d="M473.22,330.76c-0.24,0-0.49-0.02-0.73-0.06c-5.03-0.77-7.75-9.28-6.2-19.38
			c1.55-10.1,6.71-17.42,11.72-16.63c2.59,0.4,4.63,2.77,5.74,6.67c1.01,3.55,1.18,8.07,0.47,12.71
			C482.74,323.68,478,330.76,473.22,330.76z M477.26,297.33c-2.96,0-6.99,5.7-8.32,14.41c-1.38,9.05,0.97,15.86,3.95,16.31
			c3,0.44,7.27-5.34,8.65-14.38c0.65-4.27,0.51-8.38-0.39-11.56c-0.8-2.79-2.09-4.52-3.56-4.75
			C477.49,297.34,477.38,297.33,477.26,297.33z"/>
	</g>
	<g>
		<path style="fill:#FFFFFF;" d="M439.52,300.49c-0.16,0-0.33-0.02-0.49-0.07l-59.6-17.03c-0.94-0.27-1.49-1.25-1.22-2.2
			c0.27-0.94,1.25-1.49,2.2-1.22l59.6,17.03c0.94,0.27,1.49,1.25,1.22,2.2C441,299.99,440.29,300.49,439.52,300.49z"/>
	</g>
	<path style="fill:#303C60;" d="M482.09,263.44c-92.24,54.33-97.31,17.84-97.31,17.84l5.47-51.9l54.73,3.04L482.09,263.44z"/>
	<path style="fill:#F09959;" d="M391.92,293.34c2.15,9.18-0.78,17.72-6.54,19.07c-5.76,1.35-12.17-5.01-14.32-14.19
		c-2.15-9.18,0.78-17.72,6.55-19.07C383.36,277.8,389.77,284.16,391.92,293.34z"/>
	<path style="fill:#F5CE5C;" d="M385.6,305.4c0,2.01-1.63,3.63-3.63,3.63c-2.01,0-3.63-1.63-3.63-3.63c0-2.01,1.63-3.63,3.63-3.63
		C383.97,301.77,385.6,303.4,385.6,305.4z"/>
	<path style="fill:#2E5B9A;" d="M1097.17,693.55H174.5c-4.67,0-8.46-3.79-8.46-8.46s3.79-8.46,8.46-8.46h922.67
		c4.67,0,8.46,3.79,8.46,8.46S1101.84,693.55,1097.17,693.55z"/>
	<path style="fill:#DBE5EB;" d="M393.21,675.01c0,0-34.78,0.44-35.22,3.52c-0.44,3.08,1.32,4.4,13.65,6.6
		c12.33,2.2,151.02,3.08,152.34,2.2c1.32-0.88,41.83-10.57,41.83-10.57l-97.3-1.76H393.21z"/>
	<path style="fill:#F09959;" d="M412.15,651.86c0,0,24.93-10.95,32.23-6.08c7.3,4.87,28.38,27.17,28.38,27.17L412.15,651.86z"/>
	<path style="fill:#2E5B9A;" d="M471.39,674.93c-0.47,0.59-1.18,0.84-1.58,0.55l-51.31-38.2c-2.76-2.06-4.08-5.2-2.75-6.87
		c1.33-1.66,4.69-1.07,7.3,1.18l48.52,41.68C471.95,673.59,471.86,674.33,471.39,674.93z"/>
	<path style="fill:#F09959;" d="M336.74,647.2c0,0,41.36,16.42,46.22,16.42c4.86,0,32.03-18.24,41.15-15.81
		c9.12,2.43,53.72,24.93,52.51,26.76c-1.22,1.82-13.99,6.08-51.69,4.87c-37.71-1.22-99.13-6.69-99.13-6.69L336.74,647.2z"/>
	<path style="fill:#F37168;" d="M853.15,677.34H686.13c-2.73,0-4.97-2.24-4.97-4.97v-25.72c0-2.73,2.24-4.97,4.97-4.97h167.02
		c6.86,0,12.48,5.61,12.48,12.48v10.71C865.63,671.73,860.01,677.34,853.15,677.34z"/>
	<path style="fill:#F2E5DE;" d="M841.21,647.71H681.18c-1.12,1.86-1.78,4.03-1.78,6.35v10.9c0,2.32,0.66,4.49,1.78,6.35h160.04
		c5.68,0,10.33-4.65,10.33-10.33v-2.93C851.54,652.36,846.9,647.71,841.21,647.71z"/>
	<path style="fill:#7BCEE8;" d="M847.86,641.68H720.72c-1.85,0-3.36-1.51-3.36-3.36v-14.86c0-1.85,1.51-3.36,3.36-3.36h127.15
		c4.63,0,8.42,3.79,8.42,8.42v4.73C856.28,637.89,852.49,641.68,847.86,641.68z"/>
	<path style="fill:#F2E5DE;" d="M837.9,623.76H717.38c-0.84,1.13-1.34,2.44-1.34,3.84v6.59c0,1.4,0.5,2.71,1.34,3.84H837.9
		c4.28,0,7.78-2.81,7.78-6.25V630C845.68,626.57,842.18,623.76,837.9,623.76z"/>
	<g>
		<path style="fill:#9EC8FF;" d="M870.53,183.87H733.82c-4.36,0-6.63-3.57-5.04-7.93l20.67-56.8c1.59-4.36,6.45-7.93,10.81-7.93
			h136.71c4.36,0,6.63,3.57,5.04,7.93l-20.67,56.8C879.75,180.31,874.89,183.87,870.53,183.87z"/>
		<path style="fill:#FFFFFF;" d="M865.89,177.93H742.78c-3.78,0-5.74-3.09-4.37-6.86l17.12-47.03c1.37-3.78,5.59-6.86,9.36-6.86
			h123.11c3.78,0,5.74,3.09,4.37,6.86l-17.12,47.03C873.88,174.84,869.67,177.93,865.89,177.93z"/>
		<path style="fill:#9EC8FF;" d="M788.08,180.57c-11.34,29.94-28.79,39.18-28.79,39.18s12.41-17.17,10.62-25.54
			c-1.8-8.37-8.44-11.89-8.44-11.89L788.08,180.57z"/>
		<path style="fill:#9EC8FF;" d="M875.78,133.9h-79.36c-1.3,0-1.98-1.07-1.51-2.37l0.04-0.11c0.47-1.3,1.93-2.37,3.23-2.37h79.36
			c1.3,0,1.98,1.07,1.5,2.37l-0.04,0.11C878.54,132.84,877.09,133.9,875.78,133.9z"/>
		<path style="fill:#9EC8FF;" d="M872.1,144.03h-79.36c-1.3,0-1.98-1.06-1.5-2.37l0.04-0.11c0.47-1.3,1.93-2.37,3.23-2.37h79.36
			c1.3,0,1.98,1.07,1.51,2.37l-0.04,0.11C874.85,142.96,873.4,144.03,872.1,144.03z"/>
		<path style="fill:#9EC8FF;" d="M867.93,155.48h-79.36c-1.3,0-1.98-1.07-1.51-2.37l0.04-0.11c0.47-1.3,1.93-2.37,3.23-2.37h79.36
			c1.3,0,1.98,1.06,1.5,2.37l-0.04,0.11C870.68,154.41,869.23,155.48,867.93,155.48z"/>
		<path style="fill:#9EC8FF;" d="M784.05,142.05c-3.14,8.63-11.4,15.63-18.46,15.63c-7.05,0-10.22-7-7.08-15.63
			c3.14-8.63,11.41-15.63,18.46-15.63C784.02,126.42,787.19,133.41,784.05,142.05z"/>
	</g>
	<g>
		<path style="fill:#9EC8FF;" d="M792.82,331.59h-6.78c-1.43,0-2.17-1.16-1.65-2.59l2.03-5.58c0.52-1.43,2.1-2.59,3.53-2.59h6.77
			c1.43,0,2.17,1.16,1.65,2.59l-2.03,5.58C795.84,330.43,794.26,331.59,792.82,331.59z"/>
		<path style="fill:#9EC8FF;" d="M814.56,331.59h-6.78c-1.43,0-2.17-1.16-1.65-2.59l2.03-5.58c0.52-1.43,2.1-2.59,3.53-2.59h6.78
			c1.43,0,2.17,1.16,1.65,2.59L818.1,329C817.58,330.43,815.99,331.59,814.56,331.59z"/>
		<path style="fill:#9EC8FF;" d="M836.3,331.59h-6.77c-1.43,0-2.17-1.16-1.65-2.59l2.03-5.58c0.52-1.43,2.1-2.59,3.53-2.59h6.78
			c1.43,0,2.17,1.16,1.65,2.59l-2.03,5.58C839.31,330.43,837.73,331.59,836.3,331.59z"/>
	</g>
	<g>
		<path style="fill:#9EC8FF;" d="M706.69,288.66H569.98c-4.36,0-6.63-3.57-5.04-7.93l20.67-56.8c1.59-4.36,6.45-7.93,10.81-7.93
			h136.71c4.36,0,6.63,3.57,5.04,7.93l-20.67,56.8C715.91,285.1,711.05,288.66,706.69,288.66z"/>
		<path style="fill:#FFFFFF;" d="M702.05,282.72H578.94c-3.78,0-5.74-3.09-4.37-6.86l17.12-47.03c1.37-3.78,5.59-6.86,9.36-6.86
			h123.11c3.78,0,5.74,3.09,4.37,6.86l-17.12,47.03C710.04,279.63,705.83,282.72,702.05,282.72z"/>
		<path style="fill:#9EC8FF;" d="M576.91,285.36c-10.46,29.94,0.27,39.19,0.27,39.19s0.09-17.17,7.97-25.54
			c7.89-8.37,17.1-11.89,17.1-11.89L576.91,285.36z"/>
		<path style="fill:#9EC8FF;" d="M668.64,242.65h-66.97c-1.2,0-1.82-0.98-1.39-2.18l0.18-0.48c0.44-1.2,1.77-2.18,2.97-2.18h66.97
			c1.2,0,1.82,0.98,1.39,2.18l-0.18,0.48C671.18,241.67,669.84,242.65,668.64,242.65z"/>
		<path style="fill:#9EC8FF;" d="M664.95,252.78h-66.97c-1.2,0-1.82-0.98-1.39-2.18l0.18-0.48c0.44-1.2,1.77-2.18,2.97-2.18h66.97
			c1.2,0,1.82,0.98,1.39,2.18l-0.18,0.48C667.49,251.8,666.15,252.78,664.95,252.78z"/>
		<path style="fill:#9EC8FF;" d="M660.79,264.23h-66.97c-1.2,0-1.82-0.98-1.39-2.18l0.18-0.48c0.44-1.2,1.77-2.18,2.97-2.18h66.97
			c1.2,0,1.82,0.98,1.39,2.18l-0.18,0.48C663.32,263.25,661.99,264.23,660.79,264.23z"/>
		<path style="fill:#9EC8FF;" d="M831.22,352.94H699.27c-2.36,0-3.59-0.98-2.73-2.18l0.35-0.48c0.86-1.2,3.5-2.18,5.86-2.18h131.95
			c2.36,0,3.59,0.98,2.73,2.18l-0.35,0.48C836.21,351.96,833.58,352.94,831.22,352.94z"/>
		<path style="fill:#9EC8FF;" d="M823.95,369.67H692.01c-2.36,0-3.59-0.98-2.73-2.18l0.35-0.48c0.86-1.2,3.49-2.18,5.86-2.18h131.95
			c2.36,0,3.59,0.98,2.73,2.18l-0.35,0.48C828.95,368.69,826.32,369.67,823.95,369.67z"/>
		<path style="fill:#9EC8FF;" d="M691.91,268.19h-9.69c-4.36,0-6.63-3.57-5.04-7.92l7.21-19.81c1.59-4.36,6.45-7.93,10.81-7.93h9.69
			c4.36,0,6.63,3.57,5.04,7.93l-7.21,19.81C701.13,264.62,696.26,268.19,691.91,268.19z"/>
	</g>
	<g>
		<path style="fill:#9CD499;" d="M1029.82,651.09c17.58-96.49,13.73-131-33.37-209.75c-47.1-78.75-51.59-225.31-69.35-182.33
			c-17.75,42.99-15.36,150.93,40.28,203.32c55.64,52.38,63.13,75.84,66.43,97.16c3.31,21.32-7.94,86.86-7.94,86.86L1029.82,651.09z"
			/>
		<path style="fill:#74B570;" d="M1038.63,588.91c0.03-0.37,0.05-0.74,0.08-1.11c-1.03-7.92-6.62-48.63-14.36-64.69
			c-8.59-17.83-46.23-48.87-56.8-87.84s-27.32-69.17-38.3-93.78c-14.51-32.5-6.58-75.7,5.42-89.74c-0.29-0.19-0.58-0.32-0.88-0.4
			l-3.98,2.41c-0.87,1.25-1.77,2.98-2.7,5.24c-17.75,42.99-15.36,150.93,40.28,203.32c55.64,52.38,63.13,75.84,66.44,97.16
			c0.89,5.75,0.72,14.72,0,24.75L1038.63,588.91z"/>
		<path style="fill:#9CD499;" d="M1005.79,634.06c13.08-113.39,8.72-152.63-16.57-243.34c-25.29-90.71,139.55-297.42,134.32-261.66
			c-5.23,35.76-22.68,124.72-68.03,180.55c-45.35,55.82-48.84,101.18-40.12,149.15c8.72,47.97-1.74,159.61-1.74,159.61l-5.23,20.06
			L1005.79,634.06z"/>
		<g>
			<path style="fill:#74B570;" d="M1011.81,586.95c-0.01,0-0.03,0-0.04,0c-0.6-0.02-1.08-0.53-1.05-1.14
				c0.01-0.35,1.31-35.3,0.66-64c-0.65-28.72-8.44-77.93-13.17-94.83c-4.31-15.39-9.73-67.01,16.58-120.32
				c13.11-26.55,23.57-43.34,38.05-66.57c14.31-22.96,32.12-51.54,60.38-101.89c0.3-0.53,0.96-0.72,1.49-0.42
				c0.53,0.3,0.72,0.96,0.42,1.49c-28.28,50.39-46.11,78.99-60.43,101.97c-14.45,23.18-24.89,39.93-37.95,66.38
				c-26.01,52.69-20.68,103.59-16.44,118.76c4.76,17.01,12.59,66.5,13.25,95.37c0.65,28.76-0.65,63.78-0.66,64.13
				C1012.88,586.48,1012.39,586.95,1011.81,586.95z"/>
		</g>
		<path style="fill:#9CD499;" d="M1010.15,674.8c7.85-75.88,9.16-38.46-23.44-141.56c-37.31-118,95.83-222.76,117.63-180.02
			c21.8,42.74,47.1,177.06,37.5,172.7c-9.59-4.36-73.26-129.09-75.01-123.85c-1.74,5.23-86.35,48.84-82.86,93.33
			c3.49,44.48,35.76,115.13,35.76,115.13l-0.87,65.16L1010.15,674.8z"/>
		<g>
			<path style="fill:#74B570;" d="M1018.87,674.78c-0.04,0-0.07,0-0.11-0.01l-8.72-0.87c-0.29-0.03-0.56-0.17-0.74-0.4
				c-0.18-0.23-0.27-0.51-0.24-0.8c0.91-8.77,1.74-16.15,2.42-22.08c3.65-32.22,3.65-32.22-6.35-59.81
				c-4.52-12.47-10.71-29.55-19.46-57.24c-6.55-20.71-8.24-42.17-5.03-63.78c2.83-19.06,9.37-37.85,19.44-55.84
				c17.27-30.86,44.45-57.37,69.24-67.53c17.23-7.06,30.35-4.76,36,6.31c9.26,18.14,20.32,55.29,29.6,99.36
				c5.36,25.44,13.23,69.73,8.76,74.41c-0.61,0.63-1.46,0.79-2.28,0.42c-5.23-2.38-22.57-32.96-46.48-75.91
				c-11.99-21.53-24.36-43.75-27.7-47.58c-1.35,1.5-4.74,3.84-11.78,8.61c-23.7,16.07-73.01,49.52-70.36,83.26
				c3.43,43.78,35.34,114.06,35.66,114.76c0.07,0.15,0.1,0.31,0.1,0.47l-0.87,63.18c0,0.31-0.14,0.6-0.37,0.8
				C1019.4,674.69,1019.14,674.78,1018.87,674.78z M1011.35,671.84l6.44,0.64l0.85-61.74c-2.01-4.45-32.39-72.36-35.75-115.27
				c-2.75-35.01,47.28-68.94,71.32-85.25c5.71-3.87,11.11-7.53,11.6-8.54c0.16-0.48,0.58-0.83,1.09-0.87
				c2.12-0.2,6.3,6.69,29.93,49.13c16.96,30.46,40.14,72.08,45.36,74.92c0.4-0.65,1.59-4.23-0.72-22.65
				c-1.67-13.32-4.73-30.84-8.61-49.33c-9.26-44.05-20.28-81.12-29.48-99.16c-5.07-9.93-17.18-11.85-33.22-5.28
				c-43.48,17.82-110.09,96.88-82.39,184.47c8.74,27.65,14.92,44.7,19.43,57.15c10.17,28.08,10.17,28.08,6.46,60.81
				C1012.97,656.85,1012.21,663.58,1011.35,671.84z"/>
		</g>
		<path style="fill:#7BCEE8;" d="M1037.56,677.94h-39.58c-2.72,0-5.15-1.55-5.41-3.47l-13.3-99.99c-0.61-4.61,2.44-8.5,6.79-8.5
			h63.41c4.36,0,7.41,3.89,6.79,8.5l-13.3,99.99C1042.71,676.4,1040.28,677.94,1037.56,677.94z"/>
		<path style="fill:#A2DFF2;" d="M1032.87,674.5h-5.67c-2.77,0-5-1.6-4.96-3.6l2-86.37c0.1-4.3,3.62-7.91,7.83-7.91h8.6
			c4.2,0,7.26,3.61,6.8,7.91l-9.18,86.37C1038.08,672.89,1035.64,674.5,1032.87,674.5z"/>
		<g>
			<path style="fill:#74B570;" d="M990.68,534.56l0.7-1.22c-2.56-9.26-4.71-18.47-6.08-27.09
				C986.71,522.54,990.68,534.56,990.68,534.56z"/>
			<path style="fill:#74B570;" d="M990.68,461.47c-2.57,6.43-4.14,13.13-5,19.75c11.68-38.35,76.74-72.98,80.97-78.82l0.75-1.47
				C1042.96,394.11,1003.88,428.45,990.68,461.47z"/>
		</g>
		<g>
			<path style="fill:#74B570;" d="M1141.91,523.55c-0.49,0-0.94-0.33-1.06-0.83l-11.82-48.1c-9.23-37.69-20.72-84.59-33.62-105.47
				c-2.13-3.44-11.41-8.1-24.57-7.17c-17.78,1.26-52.05,13.54-81.81,81.66c-0.24,0.55-0.89,0.81-1.44,0.57
				c-0.55-0.24-0.81-0.89-0.56-1.44c30.22-69.17,65.39-81.67,83.66-82.97c14.21-1,24.11,4.19,26.58,8.2
				c13.08,21.17,24.13,66.29,33.88,106.1l11.82,48.09c0.14,0.59-0.21,1.18-0.8,1.33C1142.09,523.54,1142,523.55,1141.91,523.55z"/>
		</g>
		<g>
			<path style="fill:#74B570;" d="M1107.24,460.81c-0.04,0-0.09,0-0.13-0.01c-0.6-0.07-1.03-0.61-0.96-1.21
				c0.05-0.39,4.48-39.93-5.92-81.5c-0.15-0.59,0.21-1.18,0.8-1.33c0.59-0.15,1.18,0.21,1.33,0.8c10.49,41.98,6.02,81.89,5.97,82.29
				C1108.26,460.4,1107.79,460.81,1107.24,460.81z"/>
		</g>
		<g>
			<path style="fill:#74B570;" d="M1095.02,436.37c-0.04,0-0.09,0-0.13-0.01c-0.6-0.07-1.03-0.62-0.96-1.21
				c0.04-0.36,4.24-36.56,1.32-66.47c-0.06-0.6,0.38-1.14,0.98-1.2c0.6-0.07,1.14,0.38,1.2,0.98c2.95,30.15-1.28,66.57-1.32,66.94
				C1096.04,435.96,1095.57,436.37,1095.02,436.37z"/>
		</g>
		<g>
			<path style="fill:#74B570;" d="M1053.42,242.21c-0.41,0-0.8-0.23-0.99-0.62c-0.26-0.55-0.03-1.2,0.51-1.46
				c0.31-0.15,31.61-15.45,49.7-49.06c0.29-0.53,0.95-0.73,1.48-0.44c0.53,0.29,0.73,0.95,0.44,1.48
				c-18.45,34.26-50.36,49.85-50.68,50C1053.74,242.17,1053.57,242.21,1053.42,242.21z"/>
		</g>
		<g>
			<path style="fill:#74B570;" d="M1030.3,281.83c-0.51,0-0.96-0.36-1.07-0.87c-0.12-0.59,0.26-1.17,0.85-1.29
				c0.26-0.05,25.89-5.54,56.33-30.16c0.47-0.38,1.16-0.31,1.54,0.16c0.38,0.47,0.31,1.16-0.16,1.54
				c-30.89,24.98-57,30.55-57.26,30.6C1030.45,281.82,1030.37,281.83,1030.3,281.83z"/>
		</g>
		<g>
			<path style="fill:#74B570;" d="M1011.2,320.16c-0.45,0-0.72-0.02-0.79-0.02c-0.6-0.04-1.06-0.57-1.01-1.17
				c0.04-0.6,0.58-1.06,1.17-1.01c0.18,0.01,17.84,0.98,46.15-20.26c0.49-0.36,1.17-0.26,1.53,0.22c0.36,0.48,0.26,1.17-0.22,1.53
				C1032.04,318.94,1015.02,320.16,1011.2,320.16z"/>
		</g>
	</g>
</g>
</svg>
